<mxfile host="Electron" modified="2024-05-05T18:07:07.146Z" agent="Mozilla/5.0 (Macintosh; Intel Mac OS X 10_15_7) AppleWebKit/537.36 (KHTML, like Gecko) draw.io/24.2.5 Chrome/120.0.6099.109 Electron/28.1.0 Safari/537.36" etag="yaj_tWb3b8urgYWG4vnn" version="24.2.5" type="device">
  <diagram name="arch" id="16q3fRUWuG0rTGWrmub0">
    <mxGraphModel dx="2074" dy="1267" grid="1" gridSize="10" guides="1" tooltips="1" connect="1" arrows="1" fold="1" page="1" pageScale="1" pageWidth="1600" pageHeight="900" math="0" shadow="0">
      <root>
        <mxCell id="0" />
        <mxCell id="1" parent="0" />
        <mxCell id="jguN2LZiGlyz-i9l6ql0-79" style="edgeStyle=orthogonalEdgeStyle;rounded=0;orthogonalLoop=1;jettySize=auto;html=1;entryX=0.5;entryY=1;entryDx=0;entryDy=0;" parent="1" source="jguN2LZiGlyz-i9l6ql0-63" target="jguN2LZiGlyz-i9l6ql0-18" edge="1">
          <mxGeometry relative="1" as="geometry" />
        </mxCell>
        <mxCell id="jguN2LZiGlyz-i9l6ql0-108" value=":29092" style="edgeLabel;html=1;align=center;verticalAlign=middle;resizable=0;points=[];" parent="jguN2LZiGlyz-i9l6ql0-79" vertex="1" connectable="0">
          <mxGeometry x="0.5176" y="-2" relative="1" as="geometry">
            <mxPoint as="offset" />
          </mxGeometry>
        </mxCell>
        <mxCell id="jguN2LZiGlyz-i9l6ql0-80" style="edgeStyle=orthogonalEdgeStyle;rounded=0;orthogonalLoop=1;jettySize=auto;html=1;entryX=0.5;entryY=1;entryDx=0;entryDy=0;" parent="1" source="jguN2LZiGlyz-i9l6ql0-63" target="jguN2LZiGlyz-i9l6ql0-30" edge="1">
          <mxGeometry relative="1" as="geometry">
            <Array as="points">
              <mxPoint x="712" y="786" />
            </Array>
          </mxGeometry>
        </mxCell>
        <mxCell id="jguN2LZiGlyz-i9l6ql0-109" value="/api/v2/spans" style="edgeLabel;html=1;align=center;verticalAlign=middle;resizable=0;points=[];" parent="jguN2LZiGlyz-i9l6ql0-80" vertex="1" connectable="0">
          <mxGeometry x="0.3644" relative="1" as="geometry">
            <mxPoint as="offset" />
          </mxGeometry>
        </mxCell>
        <mxCell id="jguN2LZiGlyz-i9l6ql0-94" style="edgeStyle=orthogonalEdgeStyle;rounded=0;orthogonalLoop=1;jettySize=auto;html=1;" parent="1" source="jguN2LZiGlyz-i9l6ql0-92" target="jguN2LZiGlyz-i9l6ql0-60" edge="1">
          <mxGeometry relative="1" as="geometry" />
        </mxCell>
        <mxCell id="jguN2LZiGlyz-i9l6ql0-95" style="edgeStyle=orthogonalEdgeStyle;rounded=0;orthogonalLoop=1;jettySize=auto;html=1;" parent="1" source="jguN2LZiGlyz-i9l6ql0-92" target="jguN2LZiGlyz-i9l6ql0-61" edge="1">
          <mxGeometry relative="1" as="geometry" />
        </mxCell>
        <mxCell id="jguN2LZiGlyz-i9l6ql0-96" style="edgeStyle=orthogonalEdgeStyle;rounded=0;orthogonalLoop=1;jettySize=auto;html=1;" parent="1" source="jguN2LZiGlyz-i9l6ql0-92" target="jguN2LZiGlyz-i9l6ql0-62" edge="1">
          <mxGeometry relative="1" as="geometry" />
        </mxCell>
        <mxCell id="jguN2LZiGlyz-i9l6ql0-97" style="edgeStyle=orthogonalEdgeStyle;rounded=0;orthogonalLoop=1;jettySize=auto;html=1;" parent="1" source="jguN2LZiGlyz-i9l6ql0-92" target="jguN2LZiGlyz-i9l6ql0-85" edge="1">
          <mxGeometry relative="1" as="geometry" />
        </mxCell>
        <mxCell id="jguN2LZiGlyz-i9l6ql0-93" style="edgeStyle=orthogonalEdgeStyle;rounded=0;orthogonalLoop=1;jettySize=auto;html=1;" parent="1" source="jguN2LZiGlyz-i9l6ql0-92" target="jguN2LZiGlyz-i9l6ql0-58" edge="1">
          <mxGeometry relative="1" as="geometry" />
        </mxCell>
        <mxCell id="jguN2LZiGlyz-i9l6ql0-23" value="" style="group" parent="1" vertex="1" connectable="0">
          <mxGeometry x="150" y="164" width="1440" height="60" as="geometry" />
        </mxCell>
        <mxCell id="jguN2LZiGlyz-i9l6ql0-1" value="Edge Router" style="rounded=1;whiteSpace=wrap;html=1;container=0;fillColor=#f9f7ed;strokeColor=#36393d;points=[[0,0,0,0,0],[0,0.25,0,0,0],[0,0.5,0,0,0],[0,0.75,0,0,0],[0,1,0,0,0],[0.11,1,0,0,0],[0.22,1,0,0,0],[0.25,0,0,0,0],[0.25,1,0,0,0],[0.33,1,0,0,0],[0.44,1,0,0,0],[0.5,0,0,0,0],[0.5,1,0,0,0],[0.56,1,0,0,0],[0.67,1,0,0,0],[0.75,0,0,0,0],[0.75,1,0,0,0],[0.78,1,0,0,0],[0.89,1,0,0,0],[1,0,0,0,0],[1,0.25,0,0,0],[1,0.5,0,0,0],[1,0.75,0,0,0],[1,1,0,0,0]];" parent="jguN2LZiGlyz-i9l6ql0-23" vertex="1">
          <mxGeometry x="-120" width="1560" height="60" as="geometry" />
        </mxCell>
        <mxCell id="jguN2LZiGlyz-i9l6ql0-110" value="TLS offloading enabled" style="fillColor=#28A8E0;verticalLabelPosition=middle;sketch=0;html=1;strokeColor=#ffffff;verticalAlign=middle;align=left;points=[[0.145,0.145,0],[0.5,0,0],[0.855,0.145,0],[1,0.5,0],[0.855,0.855,0],[0.5,1,0],[0.145,0.855,0],[0,0.5,0]];pointerEvents=1;shape=mxgraph.cisco_safe.compositeIcon;bgIcon=ellipse;resIcon=mxgraph.cisco_safe.capability.ssl_tls_offload;labelPosition=right;spacingLeft=6;" parent="jguN2LZiGlyz-i9l6ql0-23" vertex="1">
          <mxGeometry x="1254" y="8.5" width="43" height="43" as="geometry" />
        </mxCell>
        <mxCell id="jguN2LZiGlyz-i9l6ql0-91" style="edgeStyle=orthogonalEdgeStyle;rounded=0;orthogonalLoop=1;jettySize=auto;html=1;entryX=0.5;entryY=0;entryDx=0;entryDy=0;" parent="1" source="jguN2LZiGlyz-i9l6ql0-58" target="jguN2LZiGlyz-i9l6ql0-8" edge="1">
          <mxGeometry relative="1" as="geometry" />
        </mxCell>
        <mxCell id="jguN2LZiGlyz-i9l6ql0-111" value=":7474" style="edgeLabel;html=1;align=center;verticalAlign=middle;resizable=0;points=[];" parent="jguN2LZiGlyz-i9l6ql0-91" vertex="1" connectable="0">
          <mxGeometry relative="1" as="geometry">
            <mxPoint y="-94" as="offset" />
          </mxGeometry>
        </mxCell>
        <mxCell id="jguN2LZiGlyz-i9l6ql0-58" value="neo4j.digilib.local" style="image;aspect=fixed;html=1;points=[];align=center;fontSize=12;image=img/lib/azure2/networking/Private_Endpoint.svg;horizontal=1;verticalAlign=bottom;labelPosition=center;verticalLabelPosition=top;labelBackgroundColor=default;" parent="1" vertex="1">
          <mxGeometry x="202.2" y="111.16000000000003" width="72" height="66" as="geometry" />
        </mxCell>
        <mxCell id="jguN2LZiGlyz-i9l6ql0-81" style="edgeStyle=orthogonalEdgeStyle;rounded=0;orthogonalLoop=1;jettySize=auto;html=1;entryX=0.5;entryY=0;entryDx=0;entryDy=0;" parent="1" source="jguN2LZiGlyz-i9l6ql0-60" target="jguN2LZiGlyz-i9l6ql0-51" edge="1">
          <mxGeometry relative="1" as="geometry" />
        </mxCell>
        <mxCell id="jguN2LZiGlyz-i9l6ql0-113" value=":80" style="edgeLabel;html=1;align=center;verticalAlign=middle;resizable=0;points=[];" parent="jguN2LZiGlyz-i9l6ql0-81" vertex="1" connectable="0">
          <mxGeometry x="0.0618" y="1" relative="1" as="geometry">
            <mxPoint y="10" as="offset" />
          </mxGeometry>
        </mxCell>
        <mxCell id="jguN2LZiGlyz-i9l6ql0-60" value="pgadmin.digilib.local" style="image;aspect=fixed;html=1;points=[];align=center;fontSize=12;image=img/lib/azure2/networking/Private_Endpoint.svg;horizontal=1;verticalAlign=bottom;labelPosition=center;verticalLabelPosition=top;labelBackgroundColor=default;" parent="1" vertex="1">
          <mxGeometry x="359" y="111.16000000000003" width="72" height="66" as="geometry" />
        </mxCell>
        <mxCell id="jguN2LZiGlyz-i9l6ql0-83" style="edgeStyle=orthogonalEdgeStyle;rounded=0;orthogonalLoop=1;jettySize=auto;html=1;" parent="1" source="jguN2LZiGlyz-i9l6ql0-61" target="jguN2LZiGlyz-i9l6ql0-39" edge="1">
          <mxGeometry relative="1" as="geometry" />
        </mxCell>
        <mxCell id="jguN2LZiGlyz-i9l6ql0-114" value=":9000" style="edgeLabel;html=1;align=center;verticalAlign=middle;resizable=0;points=[];" parent="jguN2LZiGlyz-i9l6ql0-83" vertex="1" connectable="0">
          <mxGeometry x="0.284" relative="1" as="geometry">
            <mxPoint y="-5" as="offset" />
          </mxGeometry>
        </mxCell>
        <mxCell id="jguN2LZiGlyz-i9l6ql0-61" value="kafdrop.digilib.local" style="image;aspect=fixed;html=1;points=[];align=center;fontSize=12;image=img/lib/azure2/networking/Private_Endpoint.svg;horizontal=1;verticalAlign=bottom;labelPosition=center;verticalLabelPosition=top;labelBackgroundColor=default;" parent="1" vertex="1">
          <mxGeometry x="518" y="111.16000000000003" width="72" height="66" as="geometry" />
        </mxCell>
        <mxCell id="jguN2LZiGlyz-i9l6ql0-84" style="edgeStyle=orthogonalEdgeStyle;rounded=0;orthogonalLoop=1;jettySize=auto;html=1;" parent="1" source="jguN2LZiGlyz-i9l6ql0-62" target="jguN2LZiGlyz-i9l6ql0-30" edge="1">
          <mxGeometry relative="1" as="geometry" />
        </mxCell>
        <mxCell id="jguN2LZiGlyz-i9l6ql0-116" value=":9411" style="edgeLabel;html=1;align=center;verticalAlign=middle;resizable=0;points=[];" parent="jguN2LZiGlyz-i9l6ql0-84" vertex="1" connectable="0">
          <mxGeometry x="-0.4656" y="2" relative="1" as="geometry">
            <mxPoint x="-2" y="-14" as="offset" />
          </mxGeometry>
        </mxCell>
        <mxCell id="jguN2LZiGlyz-i9l6ql0-62" value="zipkin.digilib.local" style="image;aspect=fixed;html=1;points=[];align=center;fontSize=12;image=img/lib/azure2/networking/Private_Endpoint.svg;horizontal=1;verticalAlign=bottom;labelPosition=center;verticalLabelPosition=top;labelBackgroundColor=default;" parent="1" vertex="1">
          <mxGeometry x="676" y="111.16000000000003" width="72" height="66" as="geometry" />
        </mxCell>
        <mxCell id="jguN2LZiGlyz-i9l6ql0-77" style="edgeStyle=orthogonalEdgeStyle;rounded=0;orthogonalLoop=1;jettySize=auto;html=1;exitX=0;exitY=0.5;exitDx=0;exitDy=0;entryX=0.5;entryY=1;entryDx=0;entryDy=0;" parent="1" source="jguN2LZiGlyz-i9l6ql0-63" target="jguN2LZiGlyz-i9l6ql0-8" edge="1">
          <mxGeometry relative="1" as="geometry" />
        </mxCell>
        <mxCell id="jguN2LZiGlyz-i9l6ql0-107" value=":7687" style="edgeLabel;html=1;align=center;verticalAlign=middle;resizable=0;points=[];" parent="jguN2LZiGlyz-i9l6ql0-77" vertex="1" connectable="0">
          <mxGeometry x="0.6743" y="1" relative="1" as="geometry">
            <mxPoint as="offset" />
          </mxGeometry>
        </mxCell>
        <mxCell id="jguN2LZiGlyz-i9l6ql0-78" style="edgeStyle=orthogonalEdgeStyle;rounded=0;orthogonalLoop=1;jettySize=auto;html=1;exitX=0;exitY=0.5;exitDx=0;exitDy=0;entryX=0.5;entryY=1;entryDx=0;entryDy=0;" parent="1" source="jguN2LZiGlyz-i9l6ql0-63" target="jguN2LZiGlyz-i9l6ql0-13" edge="1">
          <mxGeometry relative="1" as="geometry" />
        </mxCell>
        <mxCell id="jguN2LZiGlyz-i9l6ql0-106" value=":5432" style="edgeLabel;html=1;align=center;verticalAlign=middle;resizable=0;points=[];" parent="jguN2LZiGlyz-i9l6ql0-78" vertex="1" connectable="0">
          <mxGeometry x="0.6194" relative="1" as="geometry">
            <mxPoint as="offset" />
          </mxGeometry>
        </mxCell>
        <mxCell id="jguN2LZiGlyz-i9l6ql0-85" value="api.digilib.local" style="image;aspect=fixed;html=1;points=[];align=center;fontSize=12;image=img/lib/azure2/networking/Private_Endpoint.svg;horizontal=1;verticalAlign=bottom;labelPosition=center;verticalLabelPosition=top;labelBackgroundColor=default;" parent="1" vertex="1">
          <mxGeometry x="972.44" y="111.16000000000003" width="72" height="66" as="geometry" />
        </mxCell>
        <mxCell id="jguN2LZiGlyz-i9l6ql0-88" style="edgeStyle=orthogonalEdgeStyle;rounded=0;orthogonalLoop=1;jettySize=auto;html=1;entryX=0.5;entryY=0;entryDx=0;entryDy=0;" parent="1" source="jguN2LZiGlyz-i9l6ql0-87" target="jguN2LZiGlyz-i9l6ql0-65" edge="1">
          <mxGeometry relative="1" as="geometry" />
        </mxCell>
        <mxCell id="jguN2LZiGlyz-i9l6ql0-118" value=":3000" style="edgeLabel;html=1;align=center;verticalAlign=middle;resizable=0;points=[];" parent="jguN2LZiGlyz-i9l6ql0-88" vertex="1" connectable="0">
          <mxGeometry x="-0.5948" relative="1" as="geometry">
            <mxPoint y="1" as="offset" />
          </mxGeometry>
        </mxCell>
        <mxCell id="jguN2LZiGlyz-i9l6ql0-89" style="edgeStyle=orthogonalEdgeStyle;rounded=0;orthogonalLoop=1;jettySize=auto;html=1;exitX=0.5;exitY=1;exitDx=0;exitDy=0;entryX=0.5;entryY=0;entryDx=0;entryDy=0;" parent="1" source="jguN2LZiGlyz-i9l6ql0-39" target="jguN2LZiGlyz-i9l6ql0-18" edge="1">
          <mxGeometry relative="1" as="geometry" />
        </mxCell>
        <mxCell id="jguN2LZiGlyz-i9l6ql0-115" value=":29092" style="edgeLabel;html=1;align=center;verticalAlign=middle;resizable=0;points=[];" parent="jguN2LZiGlyz-i9l6ql0-89" vertex="1" connectable="0">
          <mxGeometry x="-0.0364" y="1" relative="1" as="geometry">
            <mxPoint as="offset" />
          </mxGeometry>
        </mxCell>
        <mxCell id="jguN2LZiGlyz-i9l6ql0-90" style="edgeStyle=orthogonalEdgeStyle;rounded=0;orthogonalLoop=1;jettySize=auto;html=1;exitX=0.5;exitY=1;exitDx=0;exitDy=0;entryX=0.5;entryY=0;entryDx=0;entryDy=0;" parent="1" source="jguN2LZiGlyz-i9l6ql0-51" target="jguN2LZiGlyz-i9l6ql0-13" edge="1">
          <mxGeometry relative="1" as="geometry" />
        </mxCell>
        <mxCell id="jguN2LZiGlyz-i9l6ql0-112" value=":5432" style="edgeLabel;html=1;align=center;verticalAlign=middle;resizable=0;points=[];" parent="jguN2LZiGlyz-i9l6ql0-90" vertex="1" connectable="0">
          <mxGeometry x="0.0085" relative="1" as="geometry">
            <mxPoint as="offset" />
          </mxGeometry>
        </mxCell>
        <mxCell id="jguN2LZiGlyz-i9l6ql0-2" value="" style="shape=image;verticalLabelPosition=bottom;labelBackgroundColor=default;verticalAlign=top;aspect=fixed;imageAspect=0;image=https://doc.traefik.io/traefik/assets/images/logo-traefik-proxy-logo.svg;container=0;" parent="1" vertex="1">
          <mxGeometry x="60.00244897959183" y="177.16" width="89.42315789473683" height="33.68421052631578" as="geometry" />
        </mxCell>
        <mxCell id="jguN2LZiGlyz-i9l6ql0-100" style="edgeStyle=orthogonalEdgeStyle;rounded=0;orthogonalLoop=1;jettySize=auto;html=1;" parent="1" source="jguN2LZiGlyz-i9l6ql0-92" target="jguN2LZiGlyz-i9l6ql0-87" edge="1">
          <mxGeometry relative="1" as="geometry" />
        </mxCell>
        <mxCell id="jguN2LZiGlyz-i9l6ql0-92" value="Browser" style="sketch=0;pointerEvents=1;shadow=0;dashed=0;html=1;strokeColor=none;fillColor=#434445;aspect=fixed;labelPosition=center;verticalLabelPosition=bottom;verticalAlign=top;align=center;outlineConnect=0;shape=mxgraph.vvd.web_browser;" parent="1" vertex="1">
          <mxGeometry x="800" y="24" width="50" height="35.5" as="geometry" />
        </mxCell>
        <mxCell id="jguN2LZiGlyz-i9l6ql0-87" value="ui.digilib.local" style="image;aspect=fixed;html=1;points=[];align=center;fontSize=12;image=img/lib/azure2/networking/Private_Endpoint.svg;horizontal=1;verticalAlign=bottom;labelPosition=center;verticalLabelPosition=top;labelBackgroundColor=default;" parent="1" vertex="1">
          <mxGeometry x="1252.76" y="111.16000000000003" width="72" height="66" as="geometry" />
        </mxCell>
        <mxCell id="jguN2LZiGlyz-i9l6ql0-52" value="" style="group;labelBackgroundColor=default;" parent="1" vertex="1" connectable="0">
          <mxGeometry x="357.99999999999994" y="304" width="74" height="100" as="geometry" />
        </mxCell>
        <mxCell id="jguN2LZiGlyz-i9l6ql0-48" value="" style="shape=image;verticalLabelPosition=bottom;labelBackgroundColor=default;verticalAlign=top;aspect=fixed;imageAspect=0;image=data:image/png,iVBORw0KGgoAAAANSUhEUgAAAN4AAABaCAYAAADXRuh5AAAKtGlDQ1BJQ0MgUHJvZmlsZQAASImVlwdUk9kSgO//p4eEAAmRTuhNkE4AKaEHEJAOohKSAIEQQiA0O7K4AmtBRASVFV0VUXAtgKwVC1YUFbAvyCKgrIsFGyrvBw7B3Xfee+fNf+653z+ZOzP3njs58wNApnHEYiGsAECaKEsS6uvBiI6JZeCGAAZ5qMAQkDncTDErJCQQIDIz/13edwNocr5rPunr33//r6LI42dyAYBCEE7gZXLTED6OjFdcsSQLANReRK+XkyWe5CsI0yRIggg/nuSkaR6d5IQpRqOnbMJDPRFWAQBP4nAkSQCQ9BE9I5ubhPgheSFsKeIJRAgj78A1LS2dhzASFxgjNmKEJ/0zE77zk/Q3nwkynxxOkoyn9zIleC9BpljIyfs/j+N/S5pQOhPDEBmkZIlfKDLTkTO7n5oeIGNRQlDwDAt4U/ZTnCz1i5hhbqZn7AzzOF4BsrXCoMAZThT4sGV+stjhM8zP9A6bYUl6qCxWosSTNcMcyWxcaWqETJ/MZ8v85yeHR81wtiAyaIYzU8MCZm08ZXqJNFSWP1/k6zEb10e297TM7/YrYMvWZiWH+8n2zpnNny9izfrMjJblxuN7ec/aRMjsxVkeslhiYYjMni/0lekzs8Nka7OQCzm7NkR2hikc/5AZBoHAFzBABBCCLCABHIT9AHJTs/i5k3cUeKaL8ySCpOQsBgupMj6DLeJazGVYW1rbAjBZs9NX4m3oVC1C9DOzunSkhpjvkTrZPKtLKAeguQgAlYezOv1dAFAKAWhq40ol2dO6yXJC/gmIgAJoQBVoAT1gDMyBNbAHzsAdeAN/EAzCQQxYArggGaQhmeeA5WANKAIlYBPYCqpADdgDDoDD4ChoBqfAeXAZXAe3QRd4BHrBAHgJRsF7MA5BEA4iQ1RIFdKGDCAzyBpiQq6QNxQIhUIxUDyUBIkgKbQcWguVQGVQFbQbqoN+hU5C56GrUCf0AOqDhqE30GcYBZNgGqwJG8LzYCbMggPgcHgxnARnwPlwIbwBroRr4UNwE3wevg53wb3wS3gMBVByKDpKB2WOYqI8UcGoWFQiSoJaiSpGVaBqUQ2oVlQ76i6qFzWC+oTGoqloBtoc7Yz2Q0eguegM9Ep0KboKfQDdhL6IvovuQ4+iv2HIGA2MGcYJw8ZEY5IwOZgiTAVmH+YE5hKmCzOAeY/FYulYI6wD1g8bg03BLsOWYndiG7HnsJ3YfuwYDodTxZnhXHDBOA4uC1eE2447hDuLu4MbwH3Ey+G18dZ4H3wsXoQvwFfgD+LP4O/gB/HjBAWCAcGJEEzgEfIIGwl7Ca2EW4QBwjhRkWhEdCGGE1OIa4iVxAbiJeJj4ls5OTldOUe5hXICudVylXJH5K7I9cl9IimRTEmepDiSlLSBtJ90jvSA9JZMJhuS3cmx5CzyBnId+QL5KfmjPFXeQp4tz5NfJV8t3yR/R/4VhUAxoLAoSyj5lArKMcotyogCQcFQwVOBo7BSoVrhpEKPwpgiVdFKMVgxTbFU8aDiVcUhJZySoZK3Ek+pUGmP0gWlfiqKqkf1pHKpa6l7qZeoAzQszYjGpqXQSmiHaR20UWUlZVvlSOVc5Wrl08q9dBTdkM6mC+kb6Ufp3fTPczTnsObw56yf0zDnzpwPKuoq7ip8lWKVRpUulc+qDFVv1VTVzarNqk/U0GqmagvVctR2qV1SG1GnqTurc9WL1Y+qP9SANUw1QjWWaezRuKExpqml6asp1tyueUFzRIuu5a6VolWudUZrWJuq7aot0C7XPqv9gqHMYDGEjErGRcaojoaOn45UZ7dOh864rpFuhG6BbqPuEz2iHlMvUa9cr01vVF9bf4H+cv16/YcGBAOmQbLBNoN2gw+GRoZRhusMmw2HjFSM2Eb5RvVGj43Jxm7GGca1xvdMsCZMk1STnSa3TWFTO9Nk02rTW2awmb2ZwGynWedczFzHuaK5tXN7zEnmLPNs83rzPgu6RaBFgUWzxat5+vNi522e1z7vm6WdpdByr+UjKyUrf6sCq1arN9am1lzraut7NmQbH5tVNi02r23NbPm2u2zv21HtFtits2uz+2rvYC+xb7AfdtB3iHfY4dDDpDFDmKXMK44YRw/HVY6nHD852TtlOR11+svZ3DnV+aDz0Hyj+fz5e+f3u+i6cFx2u/S6MlzjXX927XXTceO41bo9c9dz57nvcx9kmbBSWIdYrzwsPSQeJzw+eDp5rvA854Xy8vUq9urwVvKO8K7yfuqj65PkU+8z6mvnu8z3nB/GL8Bvs18PW5PNZdexR/0d/Ff4XwwgBYQFVAU8CzQNlAS2LoAX+C/YsuBxkEGQKKg5GASzg7cEPwkxCskI+W0hdmHIwuqFz0OtQpeHtodRw5aGHQx7H+4RvjH8UYRxhDSiLZISGRdZF/khyiuqLKo3el70iujrMWoxgpiWWFxsZOy+2LFF3ou2LhqIs4sriutebLQ4d/HVJWpLhEtOL6Us5Sw9Fo+Jj4o/GP+FE8yp5YwlsBN2JIxyPbnbuC957rxy3jDfhV/GH0x0SSxLHEpySdqSNJzsllyRPCLwFFQJXqf4pdSkfEgNTt2fOiGMEjam4dPi006KlESpoovpWum56Z1iM3GRuDfDKWNrxqgkQLIvE8pcnNmSRUOaoxtSY+kP0r5s1+zq7I85kTnHchVzRbk38kzz1ucN5vvk/7IMvYy7rG25zvI1y/tWsFbsXgmtTFjZtkpvVeGqgdW+qw+sIa5JXXOzwLKgrODd2qi1rYWahasL+3/w/aG+SL5IUtSzznldzY/oHwU/dqy3Wb99/bdiXvG1EsuSipIvpdzSaz9Z/VT508SGxA0dG+037tqE3STa1L3ZbfOBMsWy/LL+LQu2NJUzyovL321duvVqhW1FzTbiNum23srAypbt+ts3bf9SlVzVVe1R3bhDY8f6HR928nbe2eW+q6FGs6ak5vPPgp/v7/bd3VRrWFuxB7sne8/zvZF7239h/lK3T21fyb6v+0X7ew+EHrhY51BXd1Dj4MZ6uF5aP3wo7tDtw16HWxrMG3Y30htLjoAj0iMvfo3/tftowNG2Y8xjDccNju84QT1R3AQ15TWNNic397bEtHSe9D/Z1urceuI3i9/2n9I5VX1a+fTGM8QzhWcmzuafHTsnPjdyPul8f9vStkcXoi/cu7jwYselgEtXLvtcvtDOaj97xeXKqatOV09eY15rvm5/vemG3Y0TN+1unuiw72i65XCr5bbj7dbO+Z1n7rjdOX/X6+7le+x717uCujq7I7rv98T19N7n3R96IHzw+mH2w/FHqx9jHhc/UXhS8VTjae3vJr839tr3nu7z6rvxLOzZo35u/8s/Mv/4MlD4nPy8YlB7sG7IeujUsM/w7ReLXgy8FL8cHyn6U/HPHa+MXx3/y/2vG6PRowOvJa8n3pS+VX27/53tu7axkLGn79Pej38o/qj68cAn5qf2z1GfB8dzvuC+VH41+dr6LeDb44m0iQkxR8KZagVQyIATEwF4sx8AcgwA1NsAEBdN99RTAk1/B0wR+E883XdPiT0Ae3oACF8GQOBNALZXIS0t4p8SB0AIBdE7A9jGRjZm+t+pXn1StJBvhUUEgFbMeRgpbAH/kOk+/ru8/zmDSa+24J/zvwCqZggTpCHWbwAAADhlWElmTU0AKgAAAAgAAYdpAAQAAAABAAAAGgAAAAAAAqACAAQAAAABAAAA3qADAAQAAAABAAAAWgAAAACjMEWqAAAKe0lEQVR4Ae1dS44URxBtLF8CsTRmg1dgfAUs4Q1HQLJAxl6Yk7CxsQBLHIGNkewr8JmVV4CXFsfA/YqOcUx05LcyK6t7Xkqtqs6KX77M15GfGrhw9eenHzcsRIAILIrAZ4t6ozMiQAQmBEg8DgQiMAABEm8A6HRJBEg8jgEiMAABEm8A6HRJBEg8jgEiMAABEm8A6HRJBEg8jgEiMAABEm8A6HRJBEg8jgEiMAABEm8A6HRJBEg8jgEiMAABEm8A6HRJBEg8jgEiMAABEm8A6HRJBEg8jgEiMAABEm8A6HRJBEg8jgEiMAABEm8A6HRJBEg8jgEiMACBz3v4vP/ttc2NLy5ubly+2MP84jZfvf+wefXPh82jP08W902Hx4lAU+KBaM9+vHV0SKFd02f7Y/Lor5MNiMhCBOYg0HSqef/mtTmxrF4X5Dv2Nq6+E44kwGbEm6aXRzK1jPXtRL7tVJqFCMxBoNlUE2u681LOU1sPoU9lKSBLALmuOfZ2xDsH2U46Eh3NMh4BzLLOTP1vfooJxLvz64vxAUYiaDbVjPjgIyLQHIHYevsQlgPNMl5zZGmwOQJ7GUJ5wG7tIR2XnMl0qh1yi+drbg+JJz3V4Rqbko5Yh8TWprFnHaBZxCTwH4FzTuMWId6bt/8GY7l+5dKZZyL7eqfz9fa5lTmjsNIvOM+MEe/QMszaYMYLDTF8Ee9aSYfYFiHe3YfP4cstTx7cnoh1bysjZNOCT3Zr5Lu3vpmq73336apl1nafc7Sy9qnQ2jAtjWfNpENbFiFeDDSQLUZM0X3y4qXcbnLIJ5kTSvARypxa7tTB7qZ3pgVB17wOsXis6bvg5q31DmE2MZx4mlA5HSvyIfKBSJCx2VMyJwh47ctLE3khGyP9m99+yglpT8YbDHtC24pjXFd57exVB/LhgymnTDuR6dae7YDHcOLVdAqIZTNYiHDWPggppISN1gVZLLfIgDmEgZLbphFyh0I2jc1BEg8N0NPAx3+8nLKcbljqHuQ9edeBeIXvqyI73nnf5rBXfvVxXXowat/APtd/rV6qf1s8lx9R+WGUawvbqyIeMhA2USQjybTSNlQ2WlAvmc7K5HwXPzmyOTLSUTmyIoOBJ0SRupIrdEFeGcCnuru3OPC9Zs0De6G/NMEAxJshQd9wuvPv+a7Vg1ldYjvH1m+sPVoWfbi3VJiJpY5Z7ldBPCGcZDG5IkiPfHp9F1ujSSOXuu51WKbj2qwXG3jadW1c2oa9jw1kLQvfWMvKK1zuwNYKu3vo4aNJYcUQQ25JyZbEhfYgrjkZcBWvjGGzQ5NNwATBdHZDvf6OKWZOEWJDt8e6DjGksp0MPC9eDIrUwLB6uaQTvYkABQNV9LwrYg1lw5h87uDWNlrGre3qexAJfnJLafs9u8MzHoigM5gNEs9O3v2/IRKTtbpCOEtqEFbbtHqtv8uvI34hQwRDx+eu9TCAQ3Zax97KHuKtjbkEm5p4q+OacRw0POMh29UWbxqqbT3eHc7rOtx7mdTKlHxP/ZLLmRMIGCq5nZ/yFbJ/yPVzSNuz3fhBQH/UlOHEqwkaOthUiRU9JfXkkAVrp50lc3tNtpReDvlypkTwg49kWq/9h1aX0+5DatPwqWYJWCVEyZFFtq3Z2dRkQvwlgwKECBEMdmLTzZxfV6wlLcF7ZUlL7hI/wFBmAhOG3m5iyeBoIIv26H/UCv2EPgn1F1zWvgQxPONhrZUqNeRI2ax9PnXOtoOkpMigBxd0LGnFDq7o4Fgna1nvPpThEEPMr2crp86SHH5im0hi05IO9RYnkV3qin5F7DoOqYvFUNtfw4kHUsWmjXrnsoSAqfUfwMwhvQXdDuBYtrOysGWJa+3H7KV+XfWgsXbxDL5bFa9tsJ3jIxRnTLd2gOe2N9Qe6Mee5dq3csOJh4BAEo98scNxu1NpG5ZD6BIii309OEqzndiIdWQs68UGX8ym+G151TiU2I3pYZo3qsTiSsUU65eQ7irWeCDA67fPz5zRhbb7QUYhHdZxMfLgcB2bLPYIouYVMwBoOyeWnSBfctYFeSmwG1vriVzpNedv2EptevLAqWYwerbWUDf1u3p7pUVMqyCeNCRnegiZx1duTyogFQgbK5AXuymixuzgmc4qqWwH+drBBz18LNFhM1RS01Do5ciE7LO+LQKrmGqWNElnuNIjAa1b4hOyIEEJEUrtW3mPtEv6t/Hwe1sEDo54aL5eD+KQPOfoYC5sOtuBFKlp5lx/pfYlS4b8IkN7ZA7Js74vAsOJV0oayMsaT6BJHZaLXO3VZrulBrD1o8nvtQVktTqQQ10pkT37rGuHwHDi4RAbf+mdIg8Ih3+fBRnOFhAxx4bWg62YT/2DYAf8UoPY+klNNUEwbOggu0mGw/faTR6NF+/bIrCazRXsPOKDaaReiwkBbJbzYBAboV1LsSXklU0Xz5bU2WyX2lQBSUPnVGJTX0EKL0tBBvX4aMLBviWktof70+eNd+KsH36vR2A1xJMmgGA5JBN57yoE9J7pOk1wXY97eXnbni2dDmqrsPteQjqogEjPLof/azP400cLsI/dyRBZA2GxemUIDJ9qtsIDmVK/5ZKymyuriZST7VJ+7XObUe1zyXq63k599TPeHwYCR0M8HJZPZ3zbv7VLkSo0FdVdhqypp3h4ljoH0yTVtlL3KSLZLIu4vnrw+158c/2k9Pm8HQKrm2rWNE0TTdZtuGJNJ1NG2A29DWN9yqaLJURsemdlrc3Yd0twKxvyi5d6p42U7XQ0VmAfspOdwLrPTqlj9vAsFXNIP+ZnshmIL2QvVF8SX4lsyF9p/YWrPz/9WKrkyf/98Huveqq7/sMvwWcY5Mguc0rMfo1d+fc0kVVsCZGgReeFbCOGlH3oWn3RkSvsWBnUoWiZTzVh2ZC86OFa4idHDzI2xpAPTxZ1IXlrF7K2zNG1tvD94DOeznZeA0vrJNuF9HI6KaSbqp9jG7o5+jkyEmeJrOjItVa3RK9EFnGVyktb5upqO3K/yBovNJhle1+CqbnK1LJG1+rY7Bvb6re6/E4EShBYZKpZElCNbM5mScwufgBAupJjDG8aGvPBZ0RAI3DwU000Rs7t5PBd/sA1dk4n2baUcBo83hOBWgSOgnjS+NDhu36pGrIlmU1s80oEWiLQjHhYuIZ2floGXGOrNdHmLNJr4qfO8SHQbHMldj5zbLDNObM7NizYnjoEmhGv9q2NurDHaSHbMeONw/9YPDcjHgDB2xHHPiiZ7Y5l6I9tR7PjBN2M6W/BjugN+inLbf8FrPOS1XVf8r4PAs02V3R4HKAaDd4TgX0Emk41982zhggQAQ8BEs9DhXVEoDMCJF5ngGmeCHgIkHgeKqwjAp0RIPE6A0zzRMBDgMTzUGEdEeiMAInXGWCaJwIeAiSehwrriEBnBEi8zgDTPBHwECDxPFRYRwQ6I0DidQaY5omAhwCJ56HCOiLQGQESrzPANE8EPARIPA8V1hGBzgiQeJ0Bpnki4CFA4nmosI4IdEaAxOsMMM0TAQ8BEs9DhXVEoDMCJF5ngGmeCHgIkHgeKqwjAp0RIPE6A0zzRMBD4D/5KgJKhLHzRwAAAABJRU5ErkJggg==;" parent="jguN2LZiGlyz-i9l6ql0-52" vertex="1">
          <mxGeometry y="66" width="74" height="30" as="geometry" />
        </mxCell>
        <mxCell id="jguN2LZiGlyz-i9l6ql0-51" value="" style="editableCssRules=.*;html=1;shape=image;verticalLabelPosition=bottom;labelBackgroundColor=#ffffff;verticalAlign=top;aspect=fixed;imageAspect=0;image=data:image/svg+xml,PHN2ZyB4bWxucz0iaHR0cDovL3d3dy53My5vcmcvMjAwMC9zdmciIHhtbG5zOnY9Imh0dHBzOi8vdmVjdGEuaW8vbmFubyIgd2lkdGg9IjE0LjAwMDI5OTQ1MzczNTM1MiIgaGVpZ2h0PSIxNS45OTI5MjI3ODI4OTc5NSIgdmlld0JveD0iLTAuMDAwMTQ5NjA4NDAwNTMzOTA3MTIgLTAuMDAwNDYxNzIyMDgzODU1NDIwMzUgMTQuMDAwMjk5NDUzNzM1MzUyIDE1Ljk5MjkyMjc4Mjg5Nzk1Ij4mI3hhOwk8c3R5bGUgdHlwZT0idGV4dC9jc3MiPiYjeGE7CS5zdDB7ZmlsbDojNDI4NWY0O30mI3hhOwk8L3N0eWxlPiYjeGE7CTxwYXRoIGNsYXNzPSJzdDAiIGQ9Ik0xMy42NyAzLjczNkw3LjM2LjA5NmEuNzIuNzIgMCAwIDAtLjcyIDBMLjMzIDMuNzM2YS43Mi43MiAwIDAgMC0uMzMuNjJ2Ny4yOGEuNzIuNzIgMCAwIDAgLjM2LjYybDYuMjggMy42NGEuNzIuNzIgMCAwIDAgLjcyIDBsNi4zMS0zLjY0YS43Mi43MiAwIDAgMCAuMzMtLjYydi03LjI4YS43Mi43MiAwIDAgMC0uMzMtLjYyem0tLjg3IDcuMmwtMi4yLTEuMjd2LTMuMzRsLTMuMjUgMS44N3YzLjhsMi45LTEuNjcgMi4yIDEuMjctNS40NSAzLjEtNS40NS0zLjE1IDIuMi0xLjI3IDIuOSAxLjcydi0zLjhMMy40IDYuMzI2djMuMzRsLTIuMiAxLjI3di02LjI5bDUuNDUtMy4xNHYyLjQ5bC0yLjkgMS43Mkw3IDcuNTg2bDMuMjUtMS44OC0yLjktMS43MXYtMi40OWw1LjQ1IDMuMTR6Ii8+JiN4YTs8L3N2Zz4=;container=0;" parent="jguN2LZiGlyz-i9l6ql0-52" vertex="1">
          <mxGeometry x="9.215295095594342" width="55.569409808811336" height="63.50789692435581" as="geometry" />
        </mxCell>
        <mxCell id="jguN2LZiGlyz-i9l6ql0-43" value="" style="group" parent="1" vertex="1" connectable="0">
          <mxGeometry x="466.07" y="304" width="115.5" height="96" as="geometry" />
        </mxCell>
        <mxCell id="jguN2LZiGlyz-i9l6ql0-42" value="" style="shape=image;verticalLabelPosition=bottom;labelBackgroundColor=default;verticalAlign=top;aspect=fixed;imageAspect=0;image=data:image/png,iVBORw0KGgoAAAANSUhEUgAAAc4AAADwCAYAAACJ4YTZAAAKtmlDQ1BJQ0MgUHJvZmlsZQAASImVlwdUk9kSgO//p4eEEBIiICX0Jr0FkBJ6KIJ0EJWQBAiEEAMBxa4sruBaEBEBdUVXKQquSpFVVESxotiwoAuyKKjrYkFUVN4PHIK777z3zpv/3HO/fzJ3Zu49d3LmB4BM50okIlgJgHRxljTMz5MZExvHxA0CDPJQgSYw5fIyJezQ0CCAyPT8d/lwD0AT823zCV///vt/FSpfkMkDAApFOJGfyUtH+AQyXvMk0iwAUAcQvV5OlmSCLyFMlyIJItwzwclTPDzBiZOMRk/aRIR5IawKAJ7E5UqTASDpI3pmNi8Z8UPyRthKzBeKEUbegVt6egYfYSQuMEZsJAhP+Gclfucn+W8+E+U+udxkOU/tZVLw3sJMiYi77P88jv8t6SLZdAxDZJBSpP5hyMxAzux+WkagnMWJ80KmWciftJ/kFJl/5DTzMr3ippnP9Q6UrxXNC5rmJKEvR+4nixMxzYJMn/BplmaEyWMlSb3Y08yVzsSVpUXK9SkCjtx/bkpE9DRnC6PmTXNmWnjgjI2XXC+VhcnzF4j9PGfi+sr3np753X6FHPnarJQIf/neuTP5C8TsGZ+ZMfLc+AJvnxmbSLm9JMtTHksiCpXbC0R+cn1mdrh8bRZyIWfWhsrPMJUbEDrNIAj4ASaIBCKQBaSAi7A/QG5qlmDpxB0FXhmSZVJhckoWk41UmYDJEfMs5jBtrGzsAJio2akr8S5sshYhRuuMLgOpIdYHpE62zegSiwFoygdA9eGMTn8PAJQ8ABrbeDJp9pRuopyQfwIioAA6UANaQA8YA3NgAxyAC/AAPiAAhIAIEAsWAR5IAelI5jlgBVgL8kEh2Ap2gDKwF+wHVeAIOAaawClwDlwEV8FNcBc8Ar1gALwEw+ADGIMgCAeRIRqkBmlDBpAZZAOxIDfIBwqCwqBYKAFKhsSQDFoBrYcKoSKoDNoHVUO/Qiehc9BlqAt6APVBQ9Bb6DOMgkkwHdaEDWFLmAWz4UA4Al4IJ8NL4Fw4D94Ml8KV8GG4ET4HX4Xvwr3wS3gEBVAKKAZKB2WOYqG8UCGoOFQSSopahSpAlaAqUXWoFlQH6jaqF/UK9QmNRdPQTLQ52gXtj45E89BL0KvQm9Bl6Cp0I7odfRvdhx5Gf8OQMRoYM4wzhoOJwSRjcjD5mBLMQUwD5gLmLmYA8wGLxTKwRlhHrD82FpuKXY7dhN2NrceexXZh+7EjOBxODWeGc8WF4Li4LFw+bhfuMO4M7hZuAPcRr4DXxtvgffFxeDF+Hb4EX4Nvxd/CP8ePEZQIBgRnQgiBT1hG2EI4QGgh3CAMEMaIVKIR0ZUYQUwlriWWEuuIF4g9xHcKCgq6Ck4K8xWECmsUShWOKlxS6FP4RFImmZK8SPEkGWkz6RDpLOkB6R2ZTDYke5DjyFnkzeRq8nnyE/JHRZqihSJHka+4WrFcsVHxluJrCoFiQGFTFlFyKSWU45QblFdKBCVDJS8lrtIqpXKlk0rdSiNUGtWaGkJNp26i1lAvUweVccqGyj7KfOU85f3K55X7aSiaHs2LxqOtpx2gXaAN0LF0IzqHnkovpB+hd9KHVZRV7FSiVJaqlKucVulloBiGDA5DxNjCOMa4x/g8S3MWe5Zg1sZZdbNuzRpVna3qoSpQLVCtV72r+lmNqeajlqa2Ta1J7bE6Wt1Ufb56jvoe9Qvqr2bTZ7vM5s0umH1s9kMNWMNUI0xjucZ+jWsaI5pamn6aEs1dmuc1X2kxtDy0UrWKtVq1hrRp2m7aQu1i7TPaL5gqTDZTxCxltjOHdTR0/HVkOvt0OnXGdI10I3XX6dbrPtYj6rH0kvSK9dr0hvW19YP1V+jX6j80IBiwDFIMdhp0GIwaGhlGG24wbDIcNFI14hjlGtUa9RiTjd2NlxhXGt8xwZqwTNJMdpvcNIVN7U1TTMtNb5jBZg5mQrPdZl1zMHOc5ojnVM7pNieZs82zzWvN+ywYFkEW6yyaLF5b6lvGWW6z7LD8ZmVvJbI6YPXIWtk6wHqddYv1WxtTG55Nuc0dW7Ktr+1q22bbN3ZmdgK7PXb37Wn2wfYb7Nvsvzo4Okgd6hyGHPUdExwrHLtZdFYoaxPrkhPGydNptdMpp0/ODs5Zzsec/3Ixd0lzqXEZnGs0VzD3wNx+V11Xrus+1143pluC289uve467lz3SvenHnoefI+DHs/ZJuxU9mH2a08rT6lng+eol7PXSq+z3ihvP+8C704fZZ9InzKfJ766vsm+tb7DfvZ+y/3O+mP8A/23+XdzNDk8TjVnOMAxYGVAeyApMDywLPBpkGmQNKglGA4OCN4e3DPPYJ54XlMICOGEbA95HGoUuiT0t/nY+aHzy+c/C7MOWxHWEU4LXxxeE/4hwjNiS8SjSONIWWRbFCUqPqo6ajTaO7ooujfGMmZlzNVY9VhhbHMcLi4q7mDcyAKfBTsWDMTbx+fH31totHDpwsuL1BeJFp1eTFnMXXw8AZMQnVCT8IUbwq3kjiRyEisSh3levJ28l3wPfjF/SOAqKBI8T3JNKkoaTHZN3p48lOKeUpLySuglLBO+SfVP3Zs6mhaSdihtXBQtqk/HpyeknxQri9PE7RlaGUszuiRmknxJ7xLnJTuWDEsDpQczocyFmc1ZdKQ5uiYzlv0g68t2yy7P/pgTlXN8KXWpeOm1ZabLNi57nuub+8ty9HLe8rYVOivWruhbyV65bxW0KnFV22q91XmrB9b4ralaS1ybtvb6Oqt1Rever49e35Knmbcmr/8Hvx9q8xXzpfndG1w27P0R/aPwx86Ntht3bfxWwC+4UmhVWFL4ZRNv05WfrH8q/Wl8c9Lmzi0OW/ZsxW4Vb723zX1bVRG1KLeof3vw9sZiZnFB8fsdi3dcLrEr2buTuFO2s7c0qLR5l/6urbu+lKWU3S33LK+v0KjYWDG6m7/71h6PPXV7NfcW7v38s/Dn+/v89jVWGlaW7Mfuz97/7EDUgY5fWL9UH1Q/WHjw6yHxod6qsKr2asfq6hqNmi21cK2sduhw/OGbR7yPNNeZ1+2rZ9QXHgVHZUdf/Jrw671jgcfajrOO150wOFHRQGsoaIQalzUON6U09TbHNnedDDjZ1uLS0vCbxW+HTumcKj+tcnpLK7E1r3X8TO6ZkbOSs6/OJZ/rb1vc9uh8zPk77fPbOy8EXrh00ffi+Q52x5lLrpdOXXa+fPIK60rTVYerjdfsrzVct7/e0OnQ2XjD8UbzTaebLV1zu1pvud86d9v79sU7nDtX786723Uv8t797vju3vv8+4MPRA/ePMx+OPZoTQ+mp+Cx0uOSJxpPKn83+b2+16H3dJ9337Wn4U8f9fP6X/6R+ceXgbxn5Gclz7WfVw/aDJ4a8h26+WLBi4GXkpdjr/L/pP5Z8dr49Ym/PP66NhwzPPBG+mb87aZ3au8Ovbd73zYSOvLkQ/qHsdGCj2ofqz6xPnV8jv78fCznC+5L6VeTry3fAr/1jKePj0u4Uu5kK4BCBpyUBMDbQwCQYwGg3QSAuGCqp54UaOo7YJLAf+KpvntSHADY3w1AxHIAgq4DsKsMaWkR/5R4AEIpiN4FwLa28jHd/0726hOihXwrLCAANDXnYZSoGfxDpvr47/L+5wwmvNqBf87/ApNNCCXl2w5AAAAAOGVYSWZNTQAqAAAACAABh2kABAAAAAEAAAAaAAAAAAACoAIABAAAAAEAAAHOoAMABAAAAAEAAADwAAAAAGGk7QEAAEAASURBVHgB7Z0HfBRV14dPsptAgIDSQZAErAiKImJDQbEBUkSUYkVBioAols/X97WiqIgiKE3sXbAgICooWCgWilhQeocUIKQnW75zFheWZGen7WZmNv/zM+7uzL0zd547zJl77ykJfhaCgAAIgAAIgAAIaCKQqKkUCoEACIAACIAACAQIQHHiRgABEAABEAABHQSgOHXAQlEQAAEQAAEQgOLEPQACIAACIAACOghAceqAhaIgAAIgAAIgAMWJewAEQAAEQAAEdBCA4tQBC0VBAARAAARAAIoT9wAIgAAIgAAI6CAAxakDFoqCAAiAAAiAABQn7gEQAAEQAAEQ0EEAilMHLBQFARAAARAAAbfdEfzhJRpb7Kef+NNO8mgVogHJCXZqEtoCAiAAAiBQAQRsP+LM4hD0e2wYht6GTaqA2wWnAAEQAAEQsLXilEGmKM1MaCncqSAAAiAAAjYhYGvFmcsKc4PPT4VQnDa5XdAMEAABEAABWytOmab9y2Zrm4dvmQSsbx5mgS8gAAIgUIkI2FZx+rgTdvL//pIvthQMg23ZLWgUCIAACMSYgG0VZwHrpV95tHnQtvoJI84Y35s4PAiAAAjYkoBtFWcu4/rB6yfb6k1bdicaBQIgAAIgEGsCtlScoixlbXOtXdc3Y90rOD4IgAAIgIBtCdhScXK8A3qnhDDatO1tg4aBAAiAQOUlYMvIQX+yC8pSjDYr712JKwcBEAABGxOw3YizmGFN59FmqY2hSdOw9mrzDkLzQAAEQCBGBGynOBd5iL7jPwgIgAAIgAAI2JGAraZqM3iKVkab/B8EBEAABEAABGxJwDYjTpn6fJ/nZ9fbNuDB0f3nx1zt0UDwCwRAAAQqCQHbKM4VHj/N4Slasah1giDinhN6CW0EARAAgegTsIXizODh20webW5zyGhTugEjzujfjDgiCIAACDiBgOWKU0Lqvc6LmpKo2kF6kzDidMLtjTaCAAiAQPQJWKo481lpflbq5z8i+e4kwYjTSb2FtoIACIBA9AhYpjiLWFF+xeuab7LS3OswpRk9/DgSCIAACICA0whY4o4ibprz+X/TeIp2s5PmZ53Wu2gvCIAACIBA1AlYojg/YIX5Ck/Rbnew0sQgOer3Ig4IAiAAAo4gYMlU7cc8RetkpSk9i2ycjri/0UgQAAEQiDoBSxSnJKl2usTBJTi9C9B+EAABELCEgCWKE0rHkr7GSUEABEAABKJAwBLFGYV24xAgAAIgAAIgYAkBSxQnRpyW9DVOCgIgAAIgEAUClijOKLQbhwABEAABEAABSwhYojjjYcTpsqS7cFIQAAEQAAGrCViiOK2+6GicPyUhHtR/NEjgGCAAAiBQuQhYojjjQeVUR5T3yvUvBVcLAiAAAv8SsERxxkPwgBq4hUAABEAABColAUsUZzyMOI+JB+1fKW95XDQIgAAImCNgieKMh2SWdawhZ663URsEQAAEQMA0ATz+DSCUweYxBuqhCgiAAAiAgPMJWKI4nZ4EuhprzqqYqnX+3Y8rAAEQAAEDBCxRnAbaaasqDVhpQm/aqkvQGBAAARCoMAKWKE4/Ods8SBQnBARAAARAoHISsERxOh01FKfTexDtBwEQAAHjBKA4DbBrkIghpwFsqAICIAACcUHAEsXp7IlaombQm3Fx8+MiQAAEQMAIAUsUp5GG2qlOM0R4t1N3oC0gAAIgUKEELFGcTh5xis5sggDvFXqT4mQgAAIgYCcClihOOwHQ25ZjeZo2FQHe9WJDeRAAARCIGwLuuLmSCrqQpvyqgZlaY7A9HqIt//goYxc7JJWZdhB7K1dS9P1jE7mzXDHoMDf/y0lwJVD11ARKOxGL3sbuCNQCAWcSgOLU2W/pojjxnNRJjcjLSvOPX7w0771S2r29vOJMEK6s4KKNNnBcd7SPeqit1ThFTu+BrO3xKqX7fkAFEHAyAUsUZ5nBhqP4nchDoxgMYBzFQG9jvV5Wmiu9NGtmKW3d4AsoUb3HMFc++ndcFY65eM2tSdT8FKx2mOsb1AYB5xGwRnFG/zlWYeRPwFStLtY+H9H633309uQS2r3VT/Lb6ZKUnEDd+rupYzcXpVSP/mjW6XzQfhCIdwKWKE6nQpVnZCNWnBhjaO/B7Zt8NOXxYsra6+C3pZDLdfG/mM49XdS5l5tq1ITSDEGDryBQaQhYojid+ghNY42ZUmluDXMXKiPLbTwtO/7+Ytqf5dQeP5pBUjLR+Z3d1OX6JKqJTOZHw8EvEKhEBCxRnE59TxfDIEkpBolMwFNK9PdvXpr2VGkcKc0EatvBRd1vTKLa9XETRL4DsBcE4puAJYrTqeOPU9kwqHp83w+mr660hGjNCi+993IJZcfL9Cxbg53ePpF63ZxEDZtAaZq+SXAAEHA4AUsUJ0kAgbKOfDYHKeubzXnEiQTWyh1VUky0aqmHPn7dQ3vZVzNepFU7F/VmC9om6VCa8dKnuA4QMEPAGsXpwHycx7PSlBk6/oCEISBKc+WPXvrsLQ/t2uIjfxxYz8plnnqmi/oNSaKmLdDzYbodm0CgUhKwRHE6cSzSnKdp62DAEfYfiUzPitL85PVS2rXVFxcuJ3KhJ7ZOpBtHQmmG7XRsBIFKTMASxek03qIvm/P/6mDQUa7rJCLQbz/56IOpJZS5p3xEoHIVHLIh7eREumlEEh2PkaZDegzNBIGKIwDFqYF1XVaaJ7CBCFxRysP6a7WXZowrptyc8vucuqXx8Ql044hkSueoQIjn79ReRLtBIHYELFGcTpuqFTcU+YMcIeDjMHrr1nhp4kMlVJB/ZLuTv4mSbMRKs//wZDqZp2mhNJ3cm2g7CMSOgCWKM3aXE/0jS1xaCbPHz1PIvwTEEOg3djmZ9pQoTae9BoXvRgkG37DJIZeT089xkfyGgAAIgEA4AtYoTgc9a8Ug6HROh1IDijNw/xQVEv28xEMfTCulgjwHdWS4u//fbTKyrNsggbr2ddM5HV0xSUMW4fTYBQIg4DAC1ihOB0GS/JvskQBhAoU8ulz+DbucvF1KB7LjQ2lKx9bk7ORd+ibRBZe7yS1ZwiAgAAIgEIGAJYrTKY/cFB6JtOHRpvhwVnYpLCBatshLczmfZtbu+LGercKd3IPD6F3cxU3JVSp7L+P6QQAEtBCwRHFqaZgdysg07WVMqLIPQop5enbFNx76/J1SyowjpSmKsu8drDS7uqlKVTvccWgDCICAEwhYojidMOKUQeap/L/TK/k0rQQ3WLbIE0hCLdOzDouUqPhv0O1OoD63Q2kqAsIOEAABRQKWKE7F1thoh8Sk7Z2UQJxJqtKKKMmfFnvorUklVMRTtfEiifxC1OMmN3W62oWRZrx0Kq4DBCqQgCWK0wkjzpNZcV5iCZ0K7P0Ip5KIQCu+9dD0cSUkacLiRZKSE+gyTkItfykSuR8CAiAAAjoJVGLVoExKoAytkmAooLuHg5uX8F81B5MtKvDTMraefe25EhIFGi8i65gXXOaiK/q4KRWJqOOlW3EdIFDhBGAvGgb5WbyuebFBxbfpII/U9jg3NUh+rp8Wz/XQuy/Fn9Jsd5E74HYiPpsQEAABEDBKAIqzDLlq/EwdwqNNozZBS/d4aT5nCHGi5OaI0vTSnHc9HNzAiVcQvs3im3l6exddPcAdCKkXvhS2ggAIgIA2ApYoTr+NX/gvYWtLzltsSIo4fuvS3T5asstHWUVOWMk9cpmiNJfM89CCj0opJ46CG8gVtuQphF43cyJqyUQOAQEQAAGTBPAkCQEofpv9eHRi1KXv7/0+2nzQT/tYaS7e4ZxRp0zPHlKaHtqX6SyFH9J9Yb+e2CqR+g9NomYn4lYPCwgbQQAEdBPA0yQEGfvBE2eSIqMD4uW8tpn970jz403OUJxiCLToMw/N5enZ/VnxpTTTTkqkIQ9WoabIqRlyl+MrCICAWQKWKE47OtGnMYku7LdZ06DWPFjip9WseHI5YIDImiwfbeXRp51FUoOJ0vzk9VLOp2nvturl2LhZAg19qAo1bGqwQ/WeEOVBAAQqDQFLFKfd6PKyJnVnpSmRgow+Zn/jdcEtPOUZVD/ilvL5FtZMNhUPu5nIeub7U0tJ0oTFiwRyarKyHHR/Mh2XZrQ344UGrgMEQCAWBCq94pRH65lMoRMbBBn1hy9h/fjTXj9tZ8UZFC9//XKbjw7+OwINbrfDp6QDm8/B2t99uZR8zphR1oRNIgI14oj8/YclU4tTOacm9KYmbigEAiCgj0ClV5ziB8/ZpOgUg5a0gnsjT8muzPSRWNWGyh4OU/fdrjIbQwtY8D1nn59Hmjw9+0Zp3MSdFYzBRNQ9b0qi1pyI2mXQD9eCLsEpQQAEHEbAEsVpl0GOPFv5GcsZUBIMZ0Ap5YuR9cx1+4+MNoP3QG6pnxZu91OeTULWicWsKE35i7fp2fqNEqlbfze1u9hFSZU5wHDw5sMnCIBAzAhYojhjdjU6DywBZHqz+0kTExT2sFXq9+y3eaC4vOKUdc7f9/kCo1GdTYt6cVGaX33soW85KpC4n8ST1KqdQF37uelcDi6MnJrx1LO4FhCwJwETKsOeF6S1VZKzuAsrzfM4UbVREcX4B099Lt+rPIbenc8+kjt9VGhhzFdJB/bV7FJa/LmHcg/El9JM5ihPvW5Jogt4vr1KitGeRD0QAAEQ0E7AEsVph0d3M1aYN3OmjBTjepNy2AVlARsA5USwSi3mJc5fef1TRp5WSB6vv85/v5TdTrxx53KSyNPs/YYlUYcr3VQVStOK2wvnBIFKScASxWkH0ncn+8lMrG/xRf2bR28Lt6kb/8j653c8nVtQwaNOSUL9KRsBfTVbYs/a4XUlej0vFrP9hiTRJd15pGk01FP0moMjgQAIVCIClihOqx/h17DPZmc2CDIx2KRC1pdT1nrLWdKGu3dkSnfJTj/9xSH5KkrET/O9KSX0xYceKrWJcVK0rl0sZnty7NnOvZLIDevZaGHFcUAABDQSsERxamxbTIo15Su+h0ebZmXxDi9JiD2tIkrze1aeuRWgxCQK0DuTS+jLWRU8xNUKw0S5qjy3LkmoL+8NQyATGFEVBEDABIFKpTglnN5IdlWol2hmrEmBeLSTebSpR/3K1O68rV52W/GRT09FnZ2bzYEYPpoha5rxpzRTOOfbBZe76Krrk6gmElHrvDNQHARAIFoELFKc5hSXkYuXGb1uPD0racPMXLRMu77+l5f+MWCdKplTZm3wxcyvcy+PaD97q5R+/MpD3jjTm1V4pNm2g4uu7OMmJKI28i8AdUAABKJFwIwOiVYbKuQ4bdgC8zp2PzEaxD3YSJmenbVR+xRtsF7w80s2JlqqY4o3WE/tc88OP83jMHrLFvG6a6FaaWftl4AGZ5xzKMBB42aV5pZ1ViehtSBQiQhY8hQ6Egq9YkjX5wHutWwQdCIrTzNj3QxWSK+t8x5OHWak9RJFaOrvnMIrTMAEI8eTOjLS/PydQ0oz7qxn+Q49hd96rrk1iZqmW3K7Gu0W1AMBEIhTAnH/JOJBZiAWbSeeq5WgB0ZF1iVnb/TSKo7AY3aN8k8OmjBhNa+RRmGtc1+GL5AWbNmi+HM5kb5K55yaN/HCdJPmfKuaeesx2vGoBwIgAAJlCFiiOKOgL8pchvLP1jzK7MOBDjgqmylZxtOrczdzEAEOemBWgkpYgieYkUL2zXz3ZQ9Pz3qoOM6mZ4VLY850MvKxZM54wq5DJvvPDGfUBQEQAIFQApYoztAGxPK7TNFex1O0p5kcrOzlLCcfslHPP+zmYV5tHrpiSUU2fpWXdpoITFBU5KdNf3vJUwEuLrHsp3LH5n6TBNT3PZtM9Th4O5RmOULYAAIgYCGBuFWckiCDY37T1SYd5CXGrCSkXrIzOlOroX29K99HE3/zGrayrVU7kW4YkUypteJnOCbpwWSkOfiBKlSXlSYEBEAABOxGwJInU7RGbZFgyhTtEJ6i5RjghkWSUf/Ca4izNhhXbpFOLinJJLPKHJ4Clpi2ekUSN5/cOpEu7SmxWk1cqN4Tx6i8jCyPY6vZfkOTqEVLjDRjhBmHBQEQMEnAEsVpss2q1evxA/guVppm0oXJSSSzyfvrvbSBp2hjJZmF/sA08OosY0ZH1VMT6EIOCtC6XaKjkzeL0pSRZg9ORN3qbBdC6cXqhsNxQQAETBOwRHHGTg2x5Sw/gIey0jzX5BStrEF+zP6aizklWKzlb44m9AEr6J2sqI1Ig+MS6ZIebmriYHeNeo0SqAvn1DzrAhdyahq5CVAHBECgwghYojhjdXWsM+lajgx0LfugyHcz8iNb0b7LyszIFKre88qUreTsnLfFZ8hqV9JrnXy6i9NruUiSOjtNjqmbQFcPSKL27DOE9GBO6z20FwQqHwFrFKexgZVq77RjBXILWwVxSFNTksXTp8+u9JB8VpRIbs/3/mE/UZ6ylbVVvSKptS7kZM5nnOsiibTjFJF29+JMJ+df5qaUak5pNdoJAiBQmQlYozhNKrZwHdaAr0SmaHmZzJRIUIKxv3hpvYFYtKZOzJV38VTtJLayzSwwoDm5fioHPu95YxL7PTrDsEbWNa8bnEwXd8FI0+y9g/ogAAIVR8CkmjHWULORd8qeVQZYA9lf82xe1+RBpyn5kC1ov9yuL/OJqROGVBZ1uSrTR9P+9BoadcqhGjRJoD63J1GyzZM7i9KUdkrQdieNkEO6C19BAAQqKQFLFGc0WUtIvatZaXbhLykmDixK6w8OhTeDlZYYBlkp73BQgwVbjacfEwObq1gh2TXJs0zPyppm1/7SexAQAAEQcBYBRytOGV2eyf/rx89fNso0JRk8PSrB181E8jHVgJDKMiJ/9CcPrc02NmUrh+p5czK1Oc9FElDATpJSnejirm7q2te+it1OvNAWEAAB+xGw5LFqXB0cASh6kr0wqB+va7JBqSmRjCWSKmzZHj+JhasdZB9nT3lmlYd2GAzJJ9OfEkgg7URLujgswpTqCXTepaI0k6hGHEU7Cnux2AgCIBC3BOzzVNWJmJ/BgTi0nXld08xFSGJqCeAu0XsORDHVl87LCVt8Na93vsFpzIwGlq/fmAMKsLFQHQnaa7FIZKOzORF1l+uTqG5D69tjMQ6cHgRAwMEEzOgc45dt8rkp1a9kf80+Jtc15QI2HTzkBrKFP+0m4kMqvp3zeb3TiIuK+He24ohCEhzBypB8Mvo9vX0iXc1rmhK8HQICIAACTiZgjeI0SawVt5pTNFIdk8/g/cWHcmz+tNeYYjJ5GZqqZ3EGFMnM8ivHzDUiKTzSu4D9O8++yBoXFYmnewrPpfe+LYkapyE9mJE+RB0QAAF7EXCc4qzHLR7PyoBnIU2JhweYy3mKVkLdFVlsRRvpQsRQ6I99vkDMXEOGS/xyUZenajtxmpjmp5iEFqmhCvuOb5FIt9ydHAjeLi4oEBAAARBwOoGKf5KaIMZ2QDSOg9Hys9i0iBXtOI4OJIZBdhdZh/1ym5+nbP2GlLxY1kpIPrFmrXVsxWkvWcsc80yVwPQslKbd7zK0DwRAQCuBKKggrac6Us7IamIVrj6CNWd7k8HbpRWSY/PRn+3henKESuRvxbzI+eY6T2CUbGS9UxSXTNm2ZQOdWAcckHM1bJpI94+vQsdyHFoICIAACMQTAUsUp16AEhmoGwc56M3GQGYD4oi7yVt/e2jRdmNrhnrbHs3yu3mUPJMDNIghk5GXDwmgfuV1bko/mdc7Y9TzojQlS8vgB5IDof+ief04FgiAAAjYgUCMHp/RuzRx0WzL/2OvCpI8m2ZElM2Pu30c6MDGi5oqFyjrsm9xZKECg1PMkihaXEJiMWUrSrNp80SOP4tE1CrdiN0gAAIOJmCJ4tQzWuLnPN3AU7SnsPI0qTfpHw7c/tJa8Yt0bo8Ju9kcrOHjTcaVv4Tku7S7m0TRRU34WMelJVJ3fsNBIuqoUcWBQAAEbEjAEsWpdZ6Rk31Qd56i5ec8mV3a3M/BDd7kYAJ/soWqHsVtwz7jNVoJD+ilFTz6NCIuhnlZ70MpyIzUD1dHkml34TB6Z3KYv2RZkIaAAAiAQJwSsERxalFcoijPYYV5LX+pYXJkJMY0n2/2BdY1KyIxdUXcK3t5vXP8ai/t5lRkRiSVQ95JSL76jU3C5ZMfww61Xa530zkdXVQVOTWNdAfqgAAIOIiAJYpTCx/x0xzGrieSZ9OsrOAAB7M2einbZiH1zF7X79k+msxTz0bj6zbmefDrOR+mGSvbFM4a3v2GJLroSklEbV4Jm2WC+iAAAiAQawJRUEvRbyLbAdFwVpoSIcjso1iSQ3+03sdTtGyJamxwFv0LjNIRRWEuZOvg2fxSYEQkqk9rDskniaSNiqxpXs7TvnbP/2n0+lAPBEAABMoSsERxRtJfoijZ3ZCuMf4sP3yNBeyvKbFev3Kg68nhi1D5ks0h+d77x0crM429GFSvmUAXd3NTM8miouMtRdYxu9+YzKPNKBsZqVwvdoMACICA1QQsUZyRLpoNM+nBqhzTNFIhDftkXVOmaMUgSIIHxLP8fcBH7/zjpT287mlExIWkcy83pbIS1SIyJdu5VxL1uT0KbzdaTogyIAACIGAjApYoTqXHuzy3R3O0gwbant8RMW7lIAHT/2DjGYPKJOLBbbZTQvIt2emluTy6zjfg35nEc+NnsCWWuKmorXdWY0uti7q4qOdNbpKpXggIgAAIVDYCtnn0SUOu5gd4R04XZlbEclYi7PxiMKOI2fNbUf8AZ3oR386VnMNTFKleqcNvKxeygY8ESFASGWmef5mLuvZLouqp5vtJ6TzYDgIgAAJ2JqD8lIxlq8M8c9uw60lf9tnkxCemZdYGL322xRt3xkBqYDbk+OltjiqUWag0po98hBNaJlL7Tq6wSrEKxzoUd5Mu1yVRbbMhnCI3A3tBAARAwNYErFGcZZ7rdTiETT9WmpL1xKze/D37UHSgIjYMqmwiVsMSUvAT9lk14qIiBj8drnJTi1MTj5qGdfNMQJtzXdStv5vqH4ecmpXtvsL1ggAIHE3AEsUZqjdFUYoVbQf+k2DuZuRgiZ+eXllKGQZHXGbObZe6klt05h8eWss+nkZEspl0659EspYpksgzAaeckUh9BiUFgrZHNUyfkQaiDgiAAAhYTMASxRl6zafxg7k7j2iikX1K1jVXZ4Wq5dAzVZ7vORyL98HlbE1scNTd8qxEOu9S7hgWyXRy271VoDQrz+2DKwUBEFAhYKniFCvaq9gY6KxDz2iVpirvlinKxTt99DlblUquTQjRBnZRmbDGY8hQSEaVkuHkRI5AMfKx5KiE5UOfgAAIgEC8ELBEccqYUDwA27HCvJq/mNSbJNGB3mU/xh15GG2G3pjvr/fSUg4Eb4SKTNX+ZyKPNDkhNQQEQAAEQOAIAcueio34zGJFKzFpzUggOtDWQ5FzfEY0hJmT27yujL6ncRYVo4HgkzidGwQEQAAEQOBoAibV1tEH0/pLRptdeYr2AvliQkRR/pblC4TVOxBnAdxNYDlcVfhIjN5ZnL9TjIYgIAACIAAC5glYojhb8tzsADahNWtFK/6Kn7HrhYScg4QnkFfqpwVbK1cwiPAksBUEQAAEokPAEsV5N08BNjI5Cyh+isv2+OmrbcYi5UQHn/2PIrPXmzn84Bx+wZAcnhAQAAEQAAFzBCxRnO1NTtHKJctoc+ZfHsph301IZALykrGYY9l+v8tHcR7vPjII7AUBEACBKBCwRHGa1ZvifvLRBh+t4/U7iDYC+4qI5rMRlYw+ISAAAiAAAsYJWKI4jTf3UE1xP3l9nceQm4XZczu5vrimLOWQfDAUcnIvou0gAAJWE3Cc4pRpx/GrPZTL0XEg+ghI1pRZG720hUedGHfqY4fSIAACIBAk4DjFuZxHTV/wlCPEGAFxT5nHmWNK4J5iDCBqgQAIVHoCjlKc+4r8AYd+I/kmK31PhwCQUec/BzDmDEGCryAAAiCgmYCjFOcCdj1Zuw+jTc29q1Aws5DoTVkjhu5UIITNIAACIKBMwDGKU3wQ5yGIu3JP6tzz9XYf/bUfmlMnNhQHARAAAXKM4ly4w0frc/yEeLTRuWvzSomm/4GFzujQxFFAAAQqEwFHKM4sXtv8jtOG7edPSPQILNrhpT/gCxs9oDgSCIBApSBge8UpqnIZ+x7KtCLUZnTvyWIecL6xzotRfHSx4mggAAJxTsD2ijOHs56s2Oun3YizGvVbUaa9xb1HXFQgIAACIAAC2gjYXnH+zW4Tqzl1GCxAtXWo3lKSju3LbV7EsNULDuVBAAQqLQFbK04JDfd7th/xVWN4e0qy658zfCRhDCEgAAIgAALqBGytODN4elYe6rIWB4kNAVGXO/IOKc/YnAFHBQEQAIH4ImBbxSkPdBkFrc7ESCjWt5xYLQvnAnZRgYAACIAACEQmYFvFWcRTiGt5mjab1+AgsSUgIQzX81ry5lywji1pHB0EQCAeCNhWceaV+mn5XhgFVdRNti3PTxs5wAQEBEAABEAgMgEbK06iNVl4kEfuvujtzShkxcnpxrCeHD2mOBIIgEB8ErCl4hT/wnX7fSSuEpCKISDuPptyfCQKFAICIAACIKBMwLaK85cMPMCVuy02e7bxGmcWFGds4OKoIAACcUPAtorz92ykD6vou2xnPtG+4oo+K84HAiAAAs4iYEvFWcxztRt4vQ1SsQQOlrAVM7umeIG+YsHjbCAAAo4iYEvFuYtHPgdLHMUxLhora8uS91RcgSAgAAIgAALhCdhScW7l0SZi04bvsFhv3V9EVCIaFAICIAACIBCWgC0Vp/gUQqwhkM+jTQmIAAEBEAABEAhPwJaKczcCjofvrQrYKoH1scZZAaBxChAAAccSsKXizEXMVMtuqAROF55g2dlxYhAAARCwPwFbKs5CZEOx7M5xJSQQ/wcBARAAARBQIGBLxVmKuUKF7or9ZhffEdCbseeMM4AACDiXgC0VZ7ItW+XcTtbTchdrTShOPcRQFgRAoLIRsKWKqpaER7dVN2JVF5GMOiEgAAIgAALhCdjyEVndHb6x2Bp7AjWTidy2vCtif+04AwiAAAhoIWDLR2TdFIw4tXReLMocUyWBkhN18GefTy/CI8aiK3BMEAABmxKwpeJslqrjwW1TsE5tlow4k3TcFd6DPsqaWUCeLERNcGqfo90gAAL6COh4ROo7sJnSx9cwUxt1jRJI4SnyGry+rGfA6WfXoYJVXsp6tZB8SElmFD3qgQAIOIiALVcTm9RI5OlCiZnqIJJx0NRjeZq2epLOC+HoiJ59Psr50ktVW7qp1hVVKEHvMXSeEsVBQI1Abm4uZWRk0oGcHDpwIIdKS0upatUqlJKSQsceeywd17gRVa9eXe0w2A8CYQnYUnHKyOf41ETakAPNGbbXYrSxQbUEqpWsc5pc1jhzfVS6y0f7PyiiKmkuSjmNO1DnYWJ0SY457N//rKdJk6dEbO+tt9xIbc86M2KZSDu9Xi+Ne+Y52r17T6RigX1j7h5FaWnNVMvZqUBWVjbN/uRT+nrhN/TLrysjNu3a3r1o/NNPRixjdqco6/v/7yEqKVEOhWa2T822EfWNEbCl4pSpwtNqJ7DiNHZRqGWMQINqRMdU0VfXL4pTjIP4v/yVHtr/cTElNUwkd11brgLou7gKLL1t2zaaO/+LiGfs0OECU4pzwguTaMbM1yKeQ3a2Oq0l1W9QX7WcnQrMmv0JPfzYWMrP55yENpHCwiL6+NM5EVtjtk8jHhw7Y0bAlk83UZyt6mDIErNeVzhwQ7Zm1jvi9HPya9+/Qfn9xX7KmVdMB78tIfkOsQ+BOZ/Po5emTFNtUJ06dWjGtJeoGk9pOkXe/3AWjbn/QVspTaewQzuNEbCt4pQRpx4jFWOXj1pBAmJJW5+namvoXJ8MWNOGzKh7stnKdkYhFW1gqyHoziBeSz/X/LaWRo4eo6kNr86YQo0aNtRU1g6F/vprHT3w4H/t0BS0oRIRsKXilLFmo+oJlAa3lAq7FUVpNq2h/2WlhNc2y0rxZi/tfiaffDwahVhLYG9GBg0cNFRTIyZPnEBnnN5aU1m7FJLRJgQEKpqALRWnQEhlt4i29W3bvIrup5ifrzG/qBxv4EXFE0ZxBtY7fyxl/86imLcbJ1AmUFRURIOH3EnZ2dnKhf7dc9fIO6lb16tUy9mpgIeNnWZ9/KmuJgUtaWvVqqmrHgqDQCgBWxoHSQPFLaJtvQSavZHIh4FLaJ9F/buM8Bv/O+LUe/DinTwlqyAZL+ZTtTPdVONc7kwsWStQis1mv99PDz70MMk0rZp063IVjbxT26hU7VgVuX/D+g2a1jUH9O9LgwbeQk2aNiG3y0U+n49T5+GGrMi+irdz2XZIJ2tuLWolkIyEILElUI1fn9L5BVyiBumVYlnLVBC/h2j34/lUvFW5jEJVbDZJYNqMV1UtOuUUYkH7LLtlJCba9lGgSCIre5/ivuCOgbfeRGMfezjgWiNKU0SuFYozSAifRgjY+l9LQx4FnVXP1k00wtx2deqxNe1pdQxwZn1YvD6yUize7KHMqYWBIAm2u/A4bdA33y5hf83xqlcnFrSvTH+ZgwJUVS1rxwJZ2Vmqzbpj0G2qZVAABPQSMPC01HsK4+Ul2Hvb+gai2Rg/ZaWrKTNWTdgo6HQD7j+lu33k3V/eOCgUop99vw8uKqEDc4pJXFcgsSXwD09fDhw0RNNJXntlKjVs0EBTWTsWysuN7LMp65kN6jvLH9WOnNGm8gRsrThlurblsYk8ZWvrZpan6qAtMk17Fr+c1K6qf0q84HcP8VKaqngP+OgAB0bI/5nnbjWUVz0gCoQlsP/AAbp98LCw+8pufGnS83R661ZlN8fV75qpqXF1PbgY+xCwrXFQEFGLWhQYDf3OhoEwEgpSid5nTbZevrixy5DtTsEq5VBiR7WQlWURT+nu+7CIkptwHOJmh9aajiqDH6YIeDweGj5iNG3bvl31OKNHjaCuV12pWs5IAYncs3dvBu3bv5/27dvPcWIPkDspiWofewzJ1HBtjhPboGGDgJGOkeNbVUeiAO3atYt27NxJe/j6jqlVi048oQUd3+x4W13LwYO5tHnLlsBfcXEJycvDCdxOaasRyck5SLv37OE+3RuI/etOcgdmKcTXV6JL2SFQhvTNxk2baP2GDYEXeYlDfFzjxtSwUcOY9Y3tFWcqx05t3yCRlrDbw/ZcDFeM3PxKdWSatvkxvL7JwSaMSN73GhUnH9xf6qfcb0oo5VQ31bmxKiXC6MsIcsU6j48dR0uXLVfcH9xxdbcuUbeg3bJ1Gy357nv68quFmtogU6jduR2dL72Ezj/vXM1rrHcMG0G5uXnBSyGJ7xtJ5IHf/8Zbwxbpd30fEhaRRB7In3w2JxCmcPPmLYpFxcDq4os60LAhg6IaOP5+DuywffsOxfP26nE19bn2msB+8dd97vkX6cOPZpcrn56eRt9+HTmcY7CSxDNetvwneu/9D2neFwuCmxU/pS+v4zZc36c3nXLKyYrlIu14+533af6CLxWLnHTiCfTI//5z1P7tO3bQxEkv068rV1GkvjmnXVsaMngQdby4Q1QN4GyvOOWRfmGjBJq7JYF2sOKE6jzq/jH1w81wr2vhIreBmXBPho9HkTz1qkMk7VjW64VU9TQXpV7AJrwGzqvjdJWm6Lv8kHvjrXdUr1eCGzzz1NioWZRmZmbR+Ocn0gc6gxDIqPS9Dz4K/Mko9FF+KHbtcqVqu0Qx6xWll4mz2yoHyxf/0Jmvvk4vctB9LbFvf//jT5I/CcYwbuyjdFnnS/U2M2z57777ITDaC7uTN5580omBXT8uXU4Dbgr/gqBUt+x28fl97Y236U2+j+SFQ6sIn9feeCvwJ/eXBK3v2f1qrdUD5db+8UfEF67Q9kjfvM7ne+LJpzWd46effyX5kxH33XeNpKuuvFxTPbVCjnh0yajzUp7iE2MhSPQIpNdMpMuaGrsF8lZoH22GtlhC9GVOL6SS7ZGtcUPr4LsygRU//Rzw11QucWiPKKjpUydrHt2pHU9GNu3O66BbaZY9rgRnuHPU3fzgH0gyarJaiouLadRdY+ipp8drUpqh7ZVrGcQBJ+RPFFFFyJYtW2nw0DtNnWrHjp107fUD6OlnOXOODqVZ9qTiM3zX3ffRqLvvpYLCwrK7Tf+WrD49r7lOs9IMPeH6DRtp6J2j6OWp00M3G/5u7Klp+HTGK3Zq4qKTeVoR8WuNMwyt6eJ3kMGtXJRscLkxXxSnweF//rJS2vduEfkKDB4g9EIq8XdZz9QaTu+NV6dHzcL0zbffpfs4XVY0RUaGN7DylDU1q0RGT7ffMUzTFGWkNn69cBE989zzkYpEbd8QVgZaRsVKJ/zhx2V0RdcegRGzUhm92z+bM5d69OpDMoUfLZGR5qi7x5hu5zPjnw+8FEmAEDPiGMV5LKe76n2Ci530Meo00+HBuicdm0BXNDXG0pfnp4I1xkacwfNns+LM+bok+BOfOgnIw/I2jkGr5aE5ZfLEQKADnacIW3z2J5/R/x55POw+sxtlVHDLbYMrbLRWtr2jRt9L3/+wtOxmQ79ffe1NWvTtt4bqaq30w49Lad26v7UWL1du8ZLv6IabB2q6h8pVVtkgfdm1+zW0c+culZLadk+dNiMw5aqtdORS02bMpKnTZ0YupLLXMYpTrkOma8/nXI8QcwSq8sr2oJZuSpFFTgMiStOz19wbm6x3ZryQT4Xs0gLRR0AMOO665362ItyoWvGe0dFb15HRYKyUZvBCVq1eQ7Nm64s/G6xr5nPRN4tp4TfRVXSjuY9iKVr6X+n8kvR7+Mi7lXZHZbu81I0ecx/JaNGMiPHP+AkTzRyiXN3AtLSGhO7lKv67wfbGQaENF5/DITy9uHQP+wUi32MoGl3fLznORRcfZ/wFRKxpozHNWrLdR3snFFCTZ2og8bWOHnzhxZdIpgPVpEf3bnTnMG3BENSOJfunTp+heXTS+ZJOlJbWjGrXPpayeO1v06YtJCMcLSJ5Q/tefy253Uc/ntLT00jcLYKiJXi9WH1WrVo1WOXwZ926dQ9/l/XIRx9/8vBvrV/k2CJaRv1aj1kR5WSaUlKx6Wm3WKempaVRaUkpbdq8WVMMZLkWMcyZ8cprNPSO22N2abJ+r+VeKNuAsU89Q5NfnFB2s6bfR9+ZmqpYW+gUnmK8raWLnluFkYqRnpAwhv1PSuTsM0ZqE5Xu9VHBag/5ovTiImulmTMLqeE91SjB4AjY2JU4s9bnc+fTpJemqDZeLBzHjX1c1VJV9UD/FpBRw5Rpr6gWl4Dqdw69gxqxD11Z2bRpMz057lnVkZ0YqHy7eEk569SyLhXixvDQw4+WPc1Rv39Z/oOqQZSs2Wrxf5UDi//iiOFDqAv7wR5zDDuZs4ghzA88xTth4iRTU6eBg5n435ltzqA+vXtRixbNqVbNmlTILwQbN24qd8TZnFFG6+h6OPflQLaUFeUUKhs2bqSXp0zXFA9ZRneXXtKRxK0kWiKWy+L+I65ASewnLC8DYjwk1tpa/n1IO+bO/yJgBdz2LGULa6X2Ok5xinHQjSe7aBmHe5ORJ0Q7AUZHvZonBvw2jRpZiaIr2cFTL+Zmag83WhRwzrxiSmnlpmO68kI2RJHAz7/8ytOYnyjuD93x3LNPqSqM0PJq3yUTiZqMGjGMJLiCkjRvnk5Tp0yivv1vol9+XalULLBdfDSj5dYR8US88+NP56gVCey/4vLO9OLz46lKlaPvUwkCcPlll7Jfaid6fuJkzQ9uTSfVWGj6lMmBNpQtLsq0rLz+5ttlN4X9/c6br9EF558bdt8JLVrQhPFP02msuMSHWE3ECvuhB6MzdS3xlWVGI1QkaH9jDnwgSxM3DOhLfQfcHNG/M1h37rwvyIjiND5fFzyzBZ81eLT04NluuKfoZH8OB5LomsY+lAYNrPxsy5O3lNc3M6P7wlLKwS2y3yyi4o3m1kJ04nBcca1KUy7spZejY3YfhLRm7e/Br2E/j2/alEaNGB52X+hGyVDyzFNPhG4K+33b9h1ht0d7oxivaDGwEaX50ovPl1Oaoe2RrCvy4L5rpDqH0Hpmv38y6/2wSjPccWUEKj6navL6zGmKSjO07m233szXq+4OIyNBs2udct6333i1nNIMbY98l/jEs95/m9LT0/hXZFnw5deRCyjsdaTilGtJr5lAo053kRi6QNQJHMeRegbwSF1ceoxKwcpSKvqD49PGQL8V/uahrDc4iwrHtYWYJyARb+Z8Ps/8gf49Qo0a1QNO5OJIHu5v+LA7NEdmkZFn2am/sg3dtm172U0x+b3k+x80HffxR/5Xbs1VqeKdw4cajqKjdEyl7bJ2GG5UqVR+7vwFSrsOb5eRfseLLzr8W+2LZKBR609ZT13OEYnMyG0Db6YLLzhP0yGkPY89/JBqWVkWWPf3P6rlyhZwrOKswv6HndjKthvHPZXvEGUCsp7Zq0UidWSDIJ7RMCS+Ij/lLWfFuSkGWpNbJCH5DrJ7ysEFJeSP0vqpoQuNo0ojR48hCU0WDZHYtl8vmKv4JyHX9MhpLU+NWFwCEVSELFz0jeppxtw9iurXr6daLlhARtWPPfzf4M+Yfl5/XR9dx3+fR35qct+Y0WpFjtovaekeuFfdQnfOXOMvcmKINXK4tgQGwcZ1uPACuqjDhcGfip/faXx5Cj2AYxWnXEQDNnS5+RQXnccuKpJJBVKegAQ4uIgVZm8OrSdWyUalaJ2X8n6MrVKTKeD9HxVTAY8+YzGqNXrtTq4nLhHRmCKLNoPUGjWifUhDx/vrL3U/yG5dI8e0DXdisUKV6etYSnp6GqVxkHmtkpubqxoZSI4pMwp6pVPHi1Wr/KYy3R/pAD05Lm+tWjUjFQm7r1dP9fB/G9loTa+YeJTqPVX0y8vgSRz5B57qov38gro224cMKiGYxQDobE4Efhv7bDblnJtGxcsxgvO+L6GivzxGD6G5XsFajir0HmdRaeqiJPjsauamVFCMcMT6ceSdQ5WKRH17SUkJB2PPpdy8fMrLywv8BX/L58GDB01H54lWo9VCzIny06OcQtvV5aor2IXnldBNUf3eIj1d1/EktrCaXNqpo1qRsPvr1q0TsHCNtH4aKWB92IOGbLxEg2IOKX74qyQRUJNs9mnVK45WnHKxEjrubDZ6ub0l0fjVftp2EIHggzdBS36pGN3GRa0NJKkOHoN4ybGYg7mL5auv6PDW2H3h8x1cWEJVT2bjr4EplGDQbSZ2DXTekSe88CJ1uPB8XWthWq9S0pmt/f0PWr7iZw7UvYxWrlqjyz9Q63liUS6/oED1sEpWpaoVucC57dvFVHFKejY9kpW9T7V4mzNOVy2jVECsUyMpTlnnlJeq5ORkpUMobj+77VmK+yLtEEMhefmJ5G6UmaX+QlH2HHExwZnMVyHrd6PPcFN9nr6FEDVj46lH2idRGx5xmiEio819PH1avDk2a5vh+kqCK4ihUP4v5sL6hTt2vGyTqcC1q37SbIQy7M67AiO/aFy/+MxJGqiBg4bQCae0pl7X9g0ECJdwdXqc6qPRFjPHOLD/gGp1PWubZQ9Wr572ddGydbX8Tmb/RT2SmZWpWvxYzpdqVGrXrq1aNVuD8g53ECPTtMHjqPVhRoY6l+Cxgp9xoTjlYlJ47Hw5Z/p4vL2bxF2lMksaK83x5yfRGTzSNKM0xVczb2kJ5cwtrvA1R0lbtvuJfPIe5CEo5CgC8gY99eVJlJqaSpNeeO6ofUo/ZEry4cfGKu3WvF1cN/r0vYFEEX/z7RLN9exYcD8n2VYTU4rEhBJSa5eR/VqmaoNBHYwcX6JEqYmR0Z0EnTAjdepEVuhq0/Xhzh03ilMuTgxhxNL29UuTORh8uMuN/23ibjKxA48067LSNKU1ibw5HI3jqXySuLJWSNE/Htr53/yoBVuw4hqifU6xLnz1lSlU+9+HshhyPPaINgtOiRgjDt9GRcKnXdmtp2rwAqPHr+h6EvNXTcQ306gkuozXNXrOSPVkWl1NXCauV0tdLczLtlEiA5mRJLd6fZlF0SP26lk9LVcoK7qiTb0EmtEpmdJSEwJroApF42qzWBVf2CiRnr0giVrWNq80xf1k+/25JMEJLBO+l8VFZd8sXly1sBmWXX+YE099aSJJ1JZQuXFAP81+d/dzjFIjGStWr/mNrut3Q+hpHf+9Vq1DIfMiXch+DdO5SvUPHMhR2mXJdrWRlzQqhw23jIqWEbyWNpQ9f6T1ybJlw/3et39/uM2Ht4nPp0Qe0iOONw5SutgzWXm+0MFNz6/x0i887Zcfp8tl0t/HcCSgzjxNPeg0FzXnaVqzIkozm+PH5i6yPu2Xv4TXO6cWUtUT3VSN17DNzT2bJWNtfZmiFd+0siL/6CUaT6fLrlJdY5Q1SMlY8e7bb5D4G2qVJ558WmvRQLn09LRAbFIZGYuCqlkzlWqm1gx81mBXlBF33aPaVl0nNFA4OGqPVHXfPnWDGqX6+1Ue2Er1YrW9fr36qoc286KgpW5ocH3VxoQUkED84YL1hxRR/JqZGXkNs169IwH/FQ9SZkfcKk5xxTitTiL9t10CvfO3lxZs5UwcPOXo0zciL4PLXj/lGk+slUA9m7voGg5wUKeqeaUpYfUkCEHma4W2udiSnV7KnFZAjR6qTsmc2aWyikTnURIxgHjhuadp0BD18Gcy5TqN3SQkgLcWWfHTz5qmZyXg9t13jQyEaisbz7XseTpe1MFyl5TUVHVfUhlpG5VVq43XNXrOSPXEZURN/uGYxFdecZlasbD7//xrXdjtwY2yzCBxfY2IWG63O7ut7qri/qSWfq2+ASOuuJuqDSUrakSma4e1dtEodstoVz9+AiVUT0qgbhx39v627kAQiKgoTV7ykSAHGVMLAuuboSyt/O7npZn8n0vpwMfFJFa+kPAEJFRa/77Xhd9ZZuuzz71AazQqhc81rIte07M7ff7pLLqk08UR47kGm5HL/p1Wi4zU1ULFrfltraGUVXJtX3290OpLPOr8WkZWkpXGiIhrz9JlyyNWVbNujVT5m28XR9qtuE9e+tSkrorxULj6ca04gxd8bBUelaW76P9YyQzklGQSccip4uYea89+qw+c5aJ7z3TRRY0TA0ZRpq+H1xBFOWVOK6SSLaxBbaafvAf8dGBOcSDIPKIKKff2fzgDhUzpapERd43RNF26devWiIcT5fPkE4/qWidaryHbSsSTRmlni+ZpqkcyYj0soQ4lKbed5BieMg/mEFVql7TZSG7LFezHqyZm0op9+tlc0mLcVLYNC75Sf3lp2rRJ2WqqvyuF4hQKonBasXvG4NPcNOFCN13LIehk1OYUkWlZyUU65kw3/a+dm/qc4KJGHLg9KiJKcxUrzZcKDoW74xGeHaVkm5f2vV+ILCoROqd6tWrsojI+Qokju8To4tEnnjqyQeHbhg2bFPYc2nxe+3N0rT9JUG0jLgARG2Fw5yWdOqnWHPfsBCos1Bf9Y9zT2tyEVE8exQJiIXztNT1Vjzh1+kzVMqEFxCJVSw7Mbl2uCq2m67vcL29x3lQ9IveZloxCF15wvp7DBspWGsUZJFOL3VRkxHYfj9imdnRT12aJpmK4Bo8bq09RmC14HfNeVpgvsJvJgJNcgTCD8iIQFeGRZeGfHto7viAQcECMcewqMtLMX+GhA58UkYxAIeEJnMHRXyS9lRaRPIkSzCCSHOR1okhSzNFgtIrP56NJk6doLR7zch0vulD1HDICmzp9hmq5YAEZoc77YkHwp60+u3VVV14zZr5GW7Zu09xuuX+0jK5lGt+MyEueVgtbGZ0+puGlUEbgZ57ZRnezovX41X1iqyvUZkOac1mBPsPuG+9cnkTXn+iiWmydaidpWz8h4F7y0ZXJgSnmE1iBSqCHaLayhI2mdv4v75DSdIDlsSj27LeLKO8nDjjPihQSnsDQIYNJa5iye+//D+3evSf8gXhrelozxX2yQ9a21Ez+pZxkPBk95n5bKZWTTz5JdZ1T2j5x0susPNVHYouXfBeIqCR17ChnsZJQW9eVdt90y+0R74ngtf26chUNHzE6+FPxs0f3bqrTxIqVQ3b0urYfbdmyNWRL+a8S1m/4yNGqa65S8wpOQK7Hujx4tkqrOAWAuHJISrLWbH079lw3zb86iR7jMHUS+7YmK1FRUhILN9Yi56jK7ZAE0624LcPZmOnrHsn0wRXJ1CNd2hKDdvD0bPEGL20dlkOSC9Nua5qRmEtAhr1PF1jrYxqpgTbYJw+DCePHaWrJIReV+0nJOb3Z8cdHPI7UHzJsBEWK/ZqTc5BuHjiYPpszN+KxKnqnGAj17NFN02nHPTM+oCT+CmM9KlOJjz7+JN1ymzZLZU0njEEhF98XNw7oq3pkGdld06cfyYtAuOAApaWl9NGsj6n3df1VjyUFtEwRazmQjP679uhN0195tdz9Ju2U0b60+0sNa5tyvssv66zltOXKxK07Srkr1bBBjIb6nyR/ibSZg8Wv2OtjH1A/beQIOgd5pFPA+qWI/4q9fiphxaNXZNpVAhWIsk5xs2IOKEt+o2ffyzPrJgYUdgv+LhGQYimieArYEGjHQ3mOVT7FW72059k8avJUKiVGa603ltAtOLYYCT337Di6594HVM++fMVP/DB6jSQxcllp1eo01VGiuLicc95F7OIymNqf044kuLbP76M9e/YGHmYfzf7EkNFJ2bbE4vfQwYPo/Q9maTKUkilY+ZOITfJCUVBYGMj2Eim4eSzabOaYdwy6nT7jJOebN2+JeBh5GZAXAXEzuvSSjiT+t+JmtHv3bhJjHa3r1DLaDOd/HPHkEXbKi9qT454NzAKc1vIUTjCeFAgcLy4regybzji9NSvOSyOcSXkXFKcCG1Fm6TVdPIXLLho8hbmFFekm/tuV76c9HIQ8g/+KeapQ/kpZiZayg6j4iMrKW3CQmsSaUtYiJQi9KMsaPKKsW5WoXkoCp/kiOr5GIjVld5mKDA/oyfJRzhfscjIpnzz7pLXOlYN8Hdmti6jurVUpgV9EIOUJ9O7Vg775ZrGq4pOaTz/7XMAH8/TWrY46kIwWZJ+ayAPtmfHPqxWz3X7xb7z3nrvoER2xfMU3UM0/0HYX+m+DJPH0xAnPUvde2pJgy0uB0RcDmRaOVVJvud/khc2oPPbwQ2Q0pCIUpwp1eRyncqhDSc0Vmp5LlGVeKeepZKVaGBiFcmxXnioQ5SlTwFKvCs/BisKUBNLV+cFejY9TEVO/YS+J21vEU7P7OXzd/o/jw7iGcQcCI1RhC+OaHGIREp7A2McfoeXsz6blbfzOkXfTF/M+JbHODYr4/11/3bX0wYezgpvi7vOG/n3pnXffj6oyvPnGAfTGW+/YkpW8HMnLgvjzxlImT3zOUALq0Dalp6dR0yZN6LvvfwjdbOq73M9iRGdUKvUap1FoUk+mXMU/VBJEn8SB1UWptuHp1rM4jZdMu8r3U9l9RELgNeQp4NRYrFNqvAAJoZe7pISnNvNp3wfxoTSDly6B6DM5JF/xRlgKBZmU/ZSMFy8+P77s5rC/ZW3ribHl10b/88B9lJ6eFraO3o1jH3uYul51pd5qMS3vdrtpxtSXyGwmjmAjxTBr1MjhwZ+2/Bwy+HYaMXxozNr20qTn6bxz20fl+BN4yUGLUZOWk53L7lP/ZX9nMwLFaYaeA+p69vko+40i2j0un/K+LyEfTzXHlfDlFP7uoSwOEejlqXRIeAKSkHnQbbeG31lm63sffEQLvvz6qK0Sa/a1V6aZfnjdwAHpB/Dozo6SxtbDH896z/QLgjzgX3juGbbWtPeEnhgKidvSjKmTo9odsrb+5fw5UX05kul0Gb2alc6XdKLXZ04LrNeaORbLlHApAAADaElEQVQUpxl6Nq9bsLKUtt+VF5jOlBGZhK6LR/EXs/HWwpJAZCFkUVHu4TF3jwoYtSiXOLLnnvv+j/bs3XtkA39La3Y8ff3FHLrqysuP2q7lh4zkZATyuMYUaFqOGYsy0s7ZH75L8oA1Ijfe0I+++Wo+NWlynJHqltSRUI3S5os6XGj6/DIFOvez2XTySWwcEmWR0esPixeStNeIDLz1Js5j+6KuYB1K57H3K5FSq7E9IgEZZWZMKqD9s4tJpmljqUwS2R82gY2erBY/rzUf/KqYUlq5qFobXkx2mKSkHFlTVGq60QDZweOJReSkiRPoyq49gpsUP8Xw4s233qX7xhzto1e7dm2aMnliwE1h1mzO7zn/C8VjyA5xMB82ZBANvOVmEqOUoFSvUT34NexnDZX9UqladXVmiWLKrlMka8or018miTwjwQAkj6maiOXpEzwF3SZk3cydpP54jdSnagyqhaxDq7VPbX/z5un05mszAgEG5HrffvcDTWviclyxML7xhv7UvVtXMpMIW62Nsl9eSGSEvPCbb+mxx7UFRJAp6VtuvoEaNmig5RSayiSw7wvmtzShQiEQAIGyBCT7hLgB7M3IoIyMzIC7QjInHj6BH6bpaWmkJbB42WPa7XdWVjZt2ryZtu/YSdt5DVgiJZWWlNIpHDxBrvOEFs1NT/3Z7Zol8s4GthyWWYc9ezPYrWhPIIBFQUFhoE8bNWoUUESNGjYgUbpmRHLERjI8S09Po2+/Dv+CJoE3JCTkhg0b6O9/1lMRB9loyspVpouPO65xILVdamqqmeaFrQvFGRYLNoIACIAACFQEATOKsyLaF+4cWOMMRwXbQAAEQAAEQECBABSnAhhsBgEQAAEQAIFwBKA4w1HBNhAAARAAARBQIADFqQAGm0EABEAABEAgHAEoznBUsA0EQAAEQAAEFAhAcSqAwWYQAAEQAAEQCEcAijMcFWwDARAAARAAAQUCUJwKYLAZBEAABEAABMIRUI8JFa4WtoEACIAACIBAFAjU5aD4EppRSSSlmN0EkYPs1iNoDwiAAAiAgK0JYKrW1t2DxoEACIAACNiNABSn3XoE7QEBEAABELA1AShOW3cPGgcCIAACIGA3AlCcdusRtAcEQAAEQMDWBKA4bd09aBwIgAAIgIDdCPw/LLmI5zH0jrEAAAAASUVORK5CYII=;" parent="jguN2LZiGlyz-i9l6ql0-43" vertex="1">
          <mxGeometry y="36" width="115.5" height="60" as="geometry" />
        </mxCell>
        <mxCell id="jguN2LZiGlyz-i9l6ql0-39" value="" style="editableCssRules=.*;html=1;shape=image;verticalLabelPosition=bottom;labelBackgroundColor=#ffffff;verticalAlign=top;aspect=fixed;imageAspect=0;image=data:image/svg+xml,PHN2ZyB4bWxucz0iaHR0cDovL3d3dy53My5vcmcvMjAwMC9zdmciIHhtbG5zOnY9Imh0dHBzOi8vdmVjdGEuaW8vbmFubyIgd2lkdGg9IjE0LjAwMDI5OTQ1MzczNTM1MiIgaGVpZ2h0PSIxNS45OTI5MjI3ODI4OTc5NSIgdmlld0JveD0iLTAuMDAwMTQ5NjA4NDAwNTMzOTA3MTIgLTAuMDAwNDYxNzIyMDgzODU1NDIwMzUgMTQuMDAwMjk5NDUzNzM1MzUyIDE1Ljk5MjkyMjc4Mjg5Nzk1Ij4mI3hhOwk8c3R5bGUgdHlwZT0idGV4dC9jc3MiPiYjeGE7CS5zdDB7ZmlsbDojNDI4NWY0O30mI3hhOwk8L3N0eWxlPiYjeGE7CTxwYXRoIGNsYXNzPSJzdDAiIGQ9Ik0xMy42NyAzLjczNkw3LjM2LjA5NmEuNzIuNzIgMCAwIDAtLjcyIDBMLjMzIDMuNzM2YS43Mi43MiAwIDAgMC0uMzMuNjJ2Ny4yOGEuNzIuNzIgMCAwIDAgLjM2LjYybDYuMjggMy42NGEuNzIuNzIgMCAwIDAgLjcyIDBsNi4zMS0zLjY0YS43Mi43MiAwIDAgMCAuMzMtLjYydi03LjI4YS43Mi43MiAwIDAgMC0uMzMtLjYyem0tLjg3IDcuMmwtMi4yLTEuMjd2LTMuMzRsLTMuMjUgMS44N3YzLjhsMi45LTEuNjcgMi4yIDEuMjctNS40NSAzLjEtNS40NS0zLjE1IDIuMi0xLjI3IDIuOSAxLjcydi0zLjhMMy40IDYuMzI2djMuMzRsLTIuMiAxLjI3di02LjI5bDUuNDUtMy4xNHYyLjQ5bC0yLjkgMS43Mkw3IDcuNTg2bDMuMjUtMS44OC0yLjktMS43MXYtMi40OWw1LjQ1IDMuMTR6Ii8+JiN4YTs8L3N2Zz4=;container=0;" parent="jguN2LZiGlyz-i9l6ql0-43" vertex="1">
          <mxGeometry x="59.93029509559432" width="55.569409808811336" height="63.50789692435581" as="geometry" />
        </mxCell>
        <mxCell id="jguN2LZiGlyz-i9l6ql0-41" value="External Services" style="fontStyle=0;verticalAlign=top;align=center;spacingTop=-2;fillColor=none;rounded=0;whiteSpace=wrap;html=1;strokeColor=#00882B;strokeWidth=2;dashed=1;container=1;collapsible=0;expand=0;recursiveResize=0;" parent="1" vertex="1">
          <mxGeometry x="170" y="484" width="620" height="200" as="geometry" />
        </mxCell>
        <mxCell id="jguN2LZiGlyz-i9l6ql0-34" value="" style="group;labelBackgroundColor=default;" parent="jguN2LZiGlyz-i9l6ql0-41" vertex="1" connectable="0">
          <mxGeometry x="30" y="50" width="76.40000000000003" height="102.70157938487114" as="geometry" />
        </mxCell>
        <mxCell id="jguN2LZiGlyz-i9l6ql0-7" value="" style="shape=image;verticalLabelPosition=bottom;labelBackgroundColor=default;verticalAlign=top;aspect=fixed;imageAspect=0;image=https://d3k2f0s3vqqs9o.cloudfront.net/media/2BF7D1AD-4DB7-43DF-A1F1EE0C57549FC3/AC09EBCE-7CA8-492C-80B54290E36306E4/webimage-DFA31F5F-CFD4-4D9C-9F3D59BBBED6A5E9.png;container=0;" parent="jguN2LZiGlyz-i9l6ql0-34" vertex="1">
          <mxGeometry y="77.29842061512886" width="76.40000000000003" height="25.403158769742326" as="geometry" />
        </mxCell>
        <mxCell id="jguN2LZiGlyz-i9l6ql0-8" value="" style="editableCssRules=.*;html=1;shape=image;verticalLabelPosition=bottom;labelBackgroundColor=#ffffff;verticalAlign=top;aspect=fixed;imageAspect=0;image=data:image/svg+xml,PHN2ZyB4bWxucz0iaHR0cDovL3d3dy53My5vcmcvMjAwMC9zdmciIHhtbG5zOnY9Imh0dHBzOi8vdmVjdGEuaW8vbmFubyIgd2lkdGg9IjE0LjAwMDI5OTQ1MzczNTM1MiIgaGVpZ2h0PSIxNS45OTI5MjI3ODI4OTc5NSIgdmlld0JveD0iLTAuMDAwMTQ5NjA4NDAwNTMzOTA3MTIgLTAuMDAwNDYxNzIyMDgzODU1NDIwMzUgMTQuMDAwMjk5NDUzNzM1MzUyIDE1Ljk5MjkyMjc4Mjg5Nzk1Ij4mI3hhOwk8c3R5bGUgdHlwZT0idGV4dC9jc3MiPiYjeGE7CS5zdDB7ZmlsbDojNDI4NWY0O30mI3hhOwk8L3N0eWxlPiYjeGE7CTxwYXRoIGNsYXNzPSJzdDAiIGQ9Ik0xMy42NyAzLjczNkw3LjM2LjA5NmEuNzIuNzIgMCAwIDAtLjcyIDBMLjMzIDMuNzM2YS43Mi43MiAwIDAgMC0uMzMuNjJ2Ny4yOGEuNzIuNzIgMCAwIDAgLjM2LjYybDYuMjggMy42NGEuNzIuNzIgMCAwIDAgLjcyIDBsNi4zMS0zLjY0YS43Mi43MiAwIDAgMCAuMzMtLjYydi03LjI4YS43Mi43MiAwIDAgMC0uMzMtLjYyem0tLjg3IDcuMmwtMi4yLTEuMjd2LTMuMzRsLTMuMjUgMS44N3YzLjhsMi45LTEuNjcgMi4yIDEuMjctNS40NSAzLjEtNS40NS0zLjE1IDIuMi0xLjI3IDIuOSAxLjcydi0zLjhMMy40IDYuMzI2djMuMzRsLTIuMiAxLjI3di02LjI5bDUuNDUtMy4xNHYyLjQ5bC0yLjkgMS43Mkw3IDcuNTg2bDMuMjUtMS44OC0yLjktMS43MXYtMi40OWw1LjQ1IDMuMTR6Ii8+JiN4YTs8L3N2Zz4=;container=0;" parent="jguN2LZiGlyz-i9l6ql0-34" vertex="1">
          <mxGeometry x="10.41529509559436" y="-15" width="55.569409808811336" height="63.50789692435581" as="geometry" />
        </mxCell>
        <mxCell id="jguN2LZiGlyz-i9l6ql0-35" value="" style="group;labelBackgroundColor=default;" parent="jguN2LZiGlyz-i9l6ql0-41" vertex="1" connectable="0">
          <mxGeometry x="171.09470490440566" y="50" width="109.38" height="110" as="geometry" />
        </mxCell>
        <mxCell id="jguN2LZiGlyz-i9l6ql0-13" value="" style="editableCssRules=.*;html=1;shape=image;verticalLabelPosition=bottom;labelBackgroundColor=#ffffff;verticalAlign=top;aspect=fixed;imageAspect=0;image=data:image/svg+xml,PHN2ZyB4bWxucz0iaHR0cDovL3d3dy53My5vcmcvMjAwMC9zdmciIHhtbG5zOnY9Imh0dHBzOi8vdmVjdGEuaW8vbmFubyIgd2lkdGg9IjE0LjAwMDI5OTQ1MzczNTM1MiIgaGVpZ2h0PSIxNS45OTI5MjI3ODI4OTc5NSIgdmlld0JveD0iLTAuMDAwMTQ5NjA4NDAwNTMzOTA3MTIgLTAuMDAwNDYxNzIyMDgzODU1NDIwMzUgMTQuMDAwMjk5NDUzNzM1MzUyIDE1Ljk5MjkyMjc4Mjg5Nzk1Ij4mI3hhOwk8c3R5bGUgdHlwZT0idGV4dC9jc3MiPiYjeGE7CS5zdDB7ZmlsbDojNDI4NWY0O30mI3hhOwk8L3N0eWxlPiYjeGE7CTxwYXRoIGNsYXNzPSJzdDAiIGQ9Ik0xMy42NyAzLjczNkw3LjM2LjA5NmEuNzIuNzIgMCAwIDAtLjcyIDBMLjMzIDMuNzM2YS43Mi43MiAwIDAgMC0uMzMuNjJ2Ny4yOGEuNzIuNzIgMCAwIDAgLjM2LjYybDYuMjggMy42NGEuNzIuNzIgMCAwIDAgLjcyIDBsNi4zMS0zLjY0YS43Mi43MiAwIDAgMCAuMzMtLjYydi03LjI4YS43Mi43MiAwIDAgMC0uMzMtLjYyem0tLjg3IDcuMmwtMi4yLTEuMjd2LTMuMzRsLTMuMjUgMS44N3YzLjhsMi45LTEuNjcgMi4yIDEuMjctNS40NSAzLjEtNS40NS0zLjE1IDIuMi0xLjI3IDIuOSAxLjcydi0zLjhMMy40IDYuMzI2djMuMzRsLTIuMiAxLjI3di02LjI5bDUuNDUtMy4xNHYyLjQ5bC0yLjkgMS43Mkw3IDcuNTg2bDMuMjUtMS44OC0yLjktMS43MXYtMi40OWw1LjQ1IDMuMTR6Ii8+JiN4YTs8L3N2Zz4=;container=0;" parent="jguN2LZiGlyz-i9l6ql0-35" vertex="1">
          <mxGeometry x="26.90529509559434" y="-15" width="55.569409808811336" height="63.50789692435581" as="geometry" />
        </mxCell>
        <mxCell id="jguN2LZiGlyz-i9l6ql0-14" value="" style="shape=image;verticalLabelPosition=bottom;labelBackgroundColor=default;verticalAlign=top;aspect=fixed;imageAspect=0;image=https://www.postgresql.org/media/img/about/press/slonik_with_black_text_and_tagline.gif;container=0;" parent="jguN2LZiGlyz-i9l6ql0-35" vertex="1">
          <mxGeometry y="70" width="109.38" height="40" as="geometry" />
        </mxCell>
        <mxCell id="jguN2LZiGlyz-i9l6ql0-36" value="" style="group;labelBackgroundColor=default;" parent="jguN2LZiGlyz-i9l6ql0-41" vertex="1" connectable="0">
          <mxGeometry x="343.78" y="50" width="80" height="110" as="geometry" />
        </mxCell>
        <mxCell id="jguN2LZiGlyz-i9l6ql0-18" value="" style="editableCssRules=.*;html=1;shape=image;verticalLabelPosition=bottom;labelBackgroundColor=#ffffff;verticalAlign=top;aspect=fixed;imageAspect=0;image=data:image/svg+xml,PHN2ZyB4bWxucz0iaHR0cDovL3d3dy53My5vcmcvMjAwMC9zdmciIHhtbG5zOnY9Imh0dHBzOi8vdmVjdGEuaW8vbmFubyIgd2lkdGg9IjE0LjAwMDI5OTQ1MzczNTM1MiIgaGVpZ2h0PSIxNS45OTI5MjI3ODI4OTc5NSIgdmlld0JveD0iLTAuMDAwMTQ5NjA4NDAwNTMzOTA3MTIgLTAuMDAwNDYxNzIyMDgzODU1NDIwMzUgMTQuMDAwMjk5NDUzNzM1MzUyIDE1Ljk5MjkyMjc4Mjg5Nzk1Ij4mI3hhOwk8c3R5bGUgdHlwZT0idGV4dC9jc3MiPiYjeGE7CS5zdDB7ZmlsbDojNDI4NWY0O30mI3hhOwk8L3N0eWxlPiYjeGE7CTxwYXRoIGNsYXNzPSJzdDAiIGQ9Ik0xMy42NyAzLjczNkw3LjM2LjA5NmEuNzIuNzIgMCAwIDAtLjcyIDBMLjMzIDMuNzM2YS43Mi43MiAwIDAgMC0uMzMuNjJ2Ny4yOGEuNzIuNzIgMCAwIDAgLjM2LjYybDYuMjggMy42NGEuNzIuNzIgMCAwIDAgLjcyIDBsNi4zMS0zLjY0YS43Mi43MiAwIDAgMCAuMzMtLjYydi03LjI4YS43Mi43MiAwIDAgMC0uMzMtLjYyem0tLjg3IDcuMmwtMi4yLTEuMjd2LTMuMzRsLTMuMjUgMS44N3YzLjhsMi45LTEuNjcgMi4yIDEuMjctNS40NSAzLjEtNS40NS0zLjE1IDIuMi0xLjI3IDIuOSAxLjcydi0zLjhMMy40IDYuMzI2djMuMzRsLTIuMiAxLjI3di02LjI5bDUuNDUtMy4xNHYyLjQ5bC0yLjkgMS43Mkw3IDcuNTg2bDMuMjUtMS44OC0yLjktMS43MXYtMi40OWw1LjQ1IDMuMTR6Ii8+JiN4YTs8L3N2Zz4=;container=0;" parent="jguN2LZiGlyz-i9l6ql0-36" vertex="1">
          <mxGeometry x="12.220000000000027" y="-15" width="55.569409808811336" height="63.50789692435581" as="geometry" />
        </mxCell>
        <mxCell id="jguN2LZiGlyz-i9l6ql0-17" value="" style="shape=image;verticalLabelPosition=bottom;labelBackgroundColor=default;verticalAlign=top;aspect=fixed;imageAspect=0;image=https://apache.org/logos/res/kafka/kafka_highres.png;container=0;imageBackground=default;" parent="jguN2LZiGlyz-i9l6ql0-36" vertex="1">
          <mxGeometry y="70" width="80" height="40" as="geometry" />
        </mxCell>
        <mxCell id="jguN2LZiGlyz-i9l6ql0-37" value="" style="group;labelBackgroundColor=default;" parent="jguN2LZiGlyz-i9l6ql0-41" vertex="1" connectable="0">
          <mxGeometry x="490" y="50" width="104.02999999999997" height="113.52999999999997" as="geometry" />
        </mxCell>
        <mxCell id="jguN2LZiGlyz-i9l6ql0-29" value="" style="shape=image;verticalLabelPosition=bottom;labelBackgroundColor=default;verticalAlign=top;aspect=fixed;imageAspect=0;image=https://raw.githubusercontent.com/openzipkin/openzipkin.github.io/master/public/img/logo_png/zipkin_horizontal.png;container=0;imageBackground=default;" parent="jguN2LZiGlyz-i9l6ql0-37" vertex="1">
          <mxGeometry y="66.47000000000003" width="104.03" height="47.06" as="geometry" />
        </mxCell>
        <mxCell id="jguN2LZiGlyz-i9l6ql0-30" value="" style="editableCssRules=.*;html=1;shape=image;verticalLabelPosition=bottom;labelBackgroundColor=#ffffff;verticalAlign=top;aspect=fixed;imageAspect=0;image=data:image/svg+xml,PHN2ZyB4bWxucz0iaHR0cDovL3d3dy53My5vcmcvMjAwMC9zdmciIHhtbG5zOnY9Imh0dHBzOi8vdmVjdGEuaW8vbmFubyIgd2lkdGg9IjE0LjAwMDI5OTQ1MzczNTM1MiIgaGVpZ2h0PSIxNS45OTI5MjI3ODI4OTc5NSIgdmlld0JveD0iLTAuMDAwMTQ5NjA4NDAwNTMzOTA3MTIgLTAuMDAwNDYxNzIyMDgzODU1NDIwMzUgMTQuMDAwMjk5NDUzNzM1MzUyIDE1Ljk5MjkyMjc4Mjg5Nzk1Ij4mI3hhOwk8c3R5bGUgdHlwZT0idGV4dC9jc3MiPiYjeGE7CS5zdDB7ZmlsbDojNDI4NWY0O30mI3hhOwk8L3N0eWxlPiYjeGE7CTxwYXRoIGNsYXNzPSJzdDAiIGQ9Ik0xMy42NyAzLjczNkw3LjM2LjA5NmEuNzIuNzIgMCAwIDAtLjcyIDBMLjMzIDMuNzM2YS43Mi43MiAwIDAgMC0uMzMuNjJ2Ny4yOGEuNzIuNzIgMCAwIDAgLjM2LjYybDYuMjggMy42NGEuNzIuNzIgMCAwIDAgLjcyIDBsNi4zMS0zLjY0YS43Mi43MiAwIDAgMCAuMzMtLjYydi03LjI4YS43Mi43MiAwIDAgMC0uMzMtLjYyem0tLjg3IDcuMmwtMi4yLTEuMjd2LTMuMzRsLTMuMjUgMS44N3YzLjhsMi45LTEuNjcgMi4yIDEuMjctNS40NSAzLjEtNS40NS0zLjE1IDIuMi0xLjI3IDIuOSAxLjcydi0zLjhMMy40IDYuMzI2djMuMzRsLTIuMiAxLjI3di02LjI5bDUuNDUtMy4xNHYyLjQ5bC0yLjkgMS43Mkw3IDcuNTg2bDMuMjUtMS44OC0yLjktMS43MXYtMi40OWw1LjQ1IDMuMTR6Ii8+JiN4YTs8L3N2Zz4=;container=0;" parent="jguN2LZiGlyz-i9l6ql0-37" vertex="1">
          <mxGeometry x="24.23029509559433" y="-15" width="55.569409808811336" height="63.50789692435581" as="geometry" />
        </mxCell>
        <mxCell id="jguN2LZiGlyz-i9l6ql0-71" value="" style="group;labelBackgroundColor=default;" parent="1" vertex="1" connectable="0">
          <mxGeometry x="950" y="714" width="116.88000000000011" height="103.5078969243558" as="geometry" />
        </mxCell>
        <mxCell id="jguN2LZiGlyz-i9l6ql0-63" value="digilib modulith" style="editableCssRules=.*;html=1;shape=image;verticalLabelPosition=bottom;labelBackgroundColor=#ffffff;verticalAlign=top;aspect=fixed;imageAspect=0;image=data:image/svg+xml,PHN2ZyB4bWxucz0iaHR0cDovL3d3dy53My5vcmcvMjAwMC9zdmciIHhtbG5zOnY9Imh0dHBzOi8vdmVjdGEuaW8vbmFubyIgd2lkdGg9IjE0LjAwMDI5OTQ1MzczNTM1MiIgaGVpZ2h0PSIxNS45OTI5MjI3ODI4OTc5NSIgdmlld0JveD0iLTAuMDAwMTQ5NjA4NDAwNTMzOTA3MTIgLTAuMDAwNDYxNzIyMDgzODU1NDIwMzUgMTQuMDAwMjk5NDUzNzM1MzUyIDE1Ljk5MjkyMjc4Mjg5Nzk1Ij4mI3hhOwk8c3R5bGUgdHlwZT0idGV4dC9jc3MiPiYjeGE7CS5zdDB7ZmlsbDojNDI4NWY0O30mI3hhOwk8L3N0eWxlPiYjeGE7CTxwYXRoIGNsYXNzPSJzdDAiIGQ9Ik0xMy42NyAzLjczNkw3LjM2LjA5NmEuNzIuNzIgMCAwIDAtLjcyIDBMLjMzIDMuNzM2YS43Mi43MiAwIDAgMC0uMzMuNjJ2Ny4yOGEuNzIuNzIgMCAwIDAgLjM2LjYybDYuMjggMy42NGEuNzIuNzIgMCAwIDAgLjcyIDBsNi4zMS0zLjY0YS43Mi43MiAwIDAgMCAuMzMtLjYydi03LjI4YS43Mi43MiAwIDAgMC0uMzMtLjYyem0tLjg3IDcuMmwtMi4yLTEuMjd2LTMuMzRsLTMuMjUgMS44N3YzLjhsMi45LTEuNjcgMi4yIDEuMjctNS40NSAzLjEtNS40NS0zLjE1IDIuMi0xLjI3IDIuOSAxLjcydi0zLjhMMy40IDYuMzI2djMuMzRsLTIuMiAxLjI3di02LjI5bDUuNDUtMy4xNHYyLjQ5bC0yLjkgMS43Mkw3IDcuNTg2bDMuMjUtMS44OC0yLjktMS43MXYtMi40OWw1LjQ1IDMuMTR6Ii8+JiN4YTs8L3N2Zz4=;container=0;" parent="jguN2LZiGlyz-i9l6ql0-71" vertex="1">
          <mxGeometry x="30.6502950955944" y="40" width="55.569409808811336" height="63.50789692435581" as="geometry" />
        </mxCell>
        <mxCell id="jguN2LZiGlyz-i9l6ql0-38" value="" style="shape=image;verticalLabelPosition=bottom;labelBackgroundColor=default;verticalAlign=top;aspect=fixed;imageAspect=0;image=https://spring.io/img/spring-2.svg;labelBorderColor=none;imageBackground=default;" parent="jguN2LZiGlyz-i9l6ql0-71" vertex="1">
          <mxGeometry width="116.88" height="30" as="geometry" />
        </mxCell>
        <mxCell id="jguN2LZiGlyz-i9l6ql0-101" value="" style="group" parent="1" vertex="1" connectable="0">
          <mxGeometry x="1233" y="464" width="111.50999999999999" height="148.5078969243558" as="geometry" />
        </mxCell>
        <mxCell id="jguN2LZiGlyz-i9l6ql0-65" value="digilib UI" style="editableCssRules=.*;html=1;shape=image;verticalLabelPosition=bottom;labelBackgroundColor=default;verticalAlign=top;aspect=fixed;imageAspect=0;image=data:image/svg+xml,PHN2ZyB4bWxucz0iaHR0cDovL3d3dy53My5vcmcvMjAwMC9zdmciIHhtbG5zOnY9Imh0dHBzOi8vdmVjdGEuaW8vbmFubyIgd2lkdGg9IjE0LjAwMDI5OTQ1MzczNTM1MiIgaGVpZ2h0PSIxNS45OTI5MjI3ODI4OTc5NSIgdmlld0JveD0iLTAuMDAwMTQ5NjA4NDAwNTMzOTA3MTIgLTAuMDAwNDYxNzIyMDgzODU1NDIwMzUgMTQuMDAwMjk5NDUzNzM1MzUyIDE1Ljk5MjkyMjc4Mjg5Nzk1Ij4mI3hhOwk8c3R5bGUgdHlwZT0idGV4dC9jc3MiPiYjeGE7CS5zdDB7ZmlsbDojNDI4NWY0O30mI3hhOwk8L3N0eWxlPiYjeGE7CTxwYXRoIGNsYXNzPSJzdDAiIGQ9Ik0xMy42NyAzLjczNkw3LjM2LjA5NmEuNzIuNzIgMCAwIDAtLjcyIDBMLjMzIDMuNzM2YS43Mi43MiAwIDAgMC0uMzMuNjJ2Ny4yOGEuNzIuNzIgMCAwIDAgLjM2LjYybDYuMjggMy42NGEuNzIuNzIgMCAwIDAgLjcyIDBsNi4zMS0zLjY0YS43Mi43MiAwIDAgMCAuMzMtLjYydi03LjI4YS43Mi43MiAwIDAgMC0uMzMtLjYyem0tLjg3IDcuMmwtMi4yLTEuMjd2LTMuMzRsLTMuMjUgMS44N3YzLjhsMi45LTEuNjcgMi4yIDEuMjctNS40NSAzLjEtNS40NS0zLjE1IDIuMi0xLjI3IDIuOSAxLjcydi0zLjhMMy40IDYuMzI2djMuMzRsLTIuMiAxLjI3di02LjI5bDUuNDUtMy4xNHYyLjQ5bC0yLjkgMS43Mkw3IDcuNTg2bDMuMjUtMS44OC0yLjktMS43MXYtMi40OWw1LjQ1IDMuMTR6Ii8+JiN4YTs8L3N2Zz4=;container=0;" parent="jguN2LZiGlyz-i9l6ql0-101" vertex="1">
          <mxGeometry x="27.970295095594338" y="85" width="55.569409808811336" height="63.50789692435581" as="geometry" />
        </mxCell>
        <mxCell id="jguN2LZiGlyz-i9l6ql0-69" value="" style="shape=image;verticalLabelPosition=bottom;labelBackgroundColor=default;verticalAlign=top;aspect=fixed;imageAspect=0;image=https://logos-world.net/wp-content/uploads/2023/08/React-Symbol.png;container=0;imageBackground=default;" parent="jguN2LZiGlyz-i9l6ql0-101" vertex="1">
          <mxGeometry width="111.51" height="62.73" as="geometry" />
        </mxCell>
        <mxCell id="jguN2LZiGlyz-i9l6ql0-67" value="" style="shape=image;verticalLabelPosition=bottom;labelBackgroundColor=default;verticalAlign=top;aspect=fixed;imageAspect=0;image=https://raw.githubusercontent.com/docker-library/docs/01c12653951b2fe592c1f93a13b4e289ada0e3a1/nginx/logo.png;container=0;labelBorderColor=none;imageBackground=default;" parent="jguN2LZiGlyz-i9l6ql0-101" vertex="1">
          <mxGeometry x="9.25" y="55" width="93.02" height="20" as="geometry" />
        </mxCell>
        <mxCell id="jguN2LZiGlyz-i9l6ql0-102" value="inventory module" style="editableCssRules=.*;html=1;shape=image;verticalLabelPosition=bottom;labelBackgroundColor=#ffffff;verticalAlign=top;aspect=fixed;imageAspect=0;image=data:image/svg+xml,PHN2ZyB4bWxucz0iaHR0cDovL3d3dy53My5vcmcvMjAwMC9zdmciIHhtbG5zOnY9Imh0dHBzOi8vdmVjdGEuaW8vbmFubyIgd2lkdGg9IjIwIiBoZWlnaHQ9IjIwIiB2aWV3Qm94PSIwIDAgMjAgMjAiPiYjeGE7CTxzdHlsZSB0eXBlPSJ0ZXh0L2NzcyI+JiN4YTsJLnN0MHtmaWxsOiM0Mjg1ZjQ7fSYjeGE7CTwvc3R5bGU+JiN4YTsJPHBhdGggY2xhc3M9InN0MCIgZD0iTTEwIDBhMTAgMTAgMCAxIDAgMTAgMTBoMEExMCAxMCAwIDAgMCAxMCAwem0wIDE4YTggOCAwIDAgMS00LjE4LTEuMThsMy41OC0yLjA3aDB2LTQuNUw1LjUxIDh2NC41MmwyLjc1IDEuNTktMy40NiAyQTggOCAwIDAgMSA2LjA4IDN2NGgwTDEwIDkuMjggMTMuOSA3IDEwIDQuNzcgNy4yNCA2LjM2VjIuNDdhOCA4IDAgMCAxIDEwLjMxIDQuNyA4LjEgOC4xIDAgMCAxIC41MSAyLjgzdi4wN0wxNC40NiA4aDBsLTMuOSAyLjI2djQuNTFsMy45LTIuMjVWOS4zNGwzLjQ1IDJBOCA4IDAgMCAxIDEwIDE4eiIvPiYjeGE7PC9zdmc+;" parent="1" vertex="1">
          <mxGeometry x="1177" y="714" width="50" height="50" as="geometry" />
        </mxCell>
        <mxCell id="jguN2LZiGlyz-i9l6ql0-103" style="edgeStyle=orthogonalEdgeStyle;rounded=0;orthogonalLoop=1;jettySize=auto;html=1;exitX=1;exitY=0.25;exitDx=0;exitDy=0;" parent="1" source="jguN2LZiGlyz-i9l6ql0-63" target="jguN2LZiGlyz-i9l6ql0-102" edge="1">
          <mxGeometry relative="1" as="geometry" />
        </mxCell>
        <mxCell id="yt6Yc_w0ioWRDPzTCDGe-1" value="/inventory" style="edgeLabel;html=1;align=center;verticalAlign=middle;resizable=0;points=[];" vertex="1" connectable="0" parent="jguN2LZiGlyz-i9l6ql0-103">
          <mxGeometry relative="1" as="geometry">
            <mxPoint as="offset" />
          </mxGeometry>
        </mxCell>
        <mxCell id="jguN2LZiGlyz-i9l6ql0-104" value="search module" style="editableCssRules=.*;html=1;shape=image;verticalLabelPosition=bottom;labelBackgroundColor=#ffffff;verticalAlign=top;aspect=fixed;imageAspect=0;image=data:image/svg+xml,PHN2ZyB4bWxucz0iaHR0cDovL3d3dy53My5vcmcvMjAwMC9zdmciIHhtbG5zOnY9Imh0dHBzOi8vdmVjdGEuaW8vbmFubyIgd2lkdGg9IjIwIiBoZWlnaHQ9IjIwIiB2aWV3Qm94PSIwIDAgMjAgMjAiPiYjeGE7CTxzdHlsZSB0eXBlPSJ0ZXh0L2NzcyI+JiN4YTsJLnN0MHtmaWxsOiM0Mjg1ZjQ7fSYjeGE7CTwvc3R5bGU+JiN4YTsJPHBhdGggY2xhc3M9InN0MCIgZD0iTTEwIDBhMTAgMTAgMCAxIDAgMTAgMTBoMEExMCAxMCAwIDAgMCAxMCAwem0wIDE4YTggOCAwIDAgMS00LjE4LTEuMThsMy41OC0yLjA3aDB2LTQuNUw1LjUxIDh2NC41MmwyLjc1IDEuNTktMy40NiAyQTggOCAwIDAgMSA2LjA4IDN2NGgwTDEwIDkuMjggMTMuOSA3IDEwIDQuNzcgNy4yNCA2LjM2VjIuNDdhOCA4IDAgMCAxIDEwLjMxIDQuNyA4LjEgOC4xIDAgMCAxIC41MSAyLjgzdi4wN0wxNC40NiA4aDBsLTMuOSAyLjI2djQuNTFsMy45LTIuMjVWOS4zNGwzLjQ1IDJBOCA4IDAgMCAxIDEwIDE4eiIvPiYjeGE7PC9zdmc+;" parent="1" vertex="1">
          <mxGeometry x="1177" y="817.51" width="50" height="50" as="geometry" />
        </mxCell>
        <mxCell id="jguN2LZiGlyz-i9l6ql0-105" style="edgeStyle=orthogonalEdgeStyle;rounded=0;orthogonalLoop=1;jettySize=auto;html=1;exitX=1;exitY=0.75;exitDx=0;exitDy=0;entryX=0;entryY=0.5;entryDx=0;entryDy=0;" parent="1" source="jguN2LZiGlyz-i9l6ql0-63" target="jguN2LZiGlyz-i9l6ql0-104" edge="1">
          <mxGeometry relative="1" as="geometry" />
        </mxCell>
        <mxCell id="yt6Yc_w0ioWRDPzTCDGe-2" value="/book" style="edgeLabel;html=1;align=center;verticalAlign=middle;resizable=0;points=[];" vertex="1" connectable="0" parent="jguN2LZiGlyz-i9l6ql0-105">
          <mxGeometry relative="1" as="geometry">
            <mxPoint as="offset" />
          </mxGeometry>
        </mxCell>
        <mxCell id="jguN2LZiGlyz-i9l6ql0-86" style="edgeStyle=orthogonalEdgeStyle;rounded=0;orthogonalLoop=1;jettySize=auto;html=1;" parent="1" source="jguN2LZiGlyz-i9l6ql0-85" target="jguN2LZiGlyz-i9l6ql0-63" edge="1">
          <mxGeometry relative="1" as="geometry" />
        </mxCell>
        <mxCell id="jguN2LZiGlyz-i9l6ql0-117" value=":8080" style="edgeLabel;html=1;align=center;verticalAlign=middle;resizable=0;points=[];" parent="jguN2LZiGlyz-i9l6ql0-86" vertex="1" connectable="0">
          <mxGeometry x="-0.7284" y="1" relative="1" as="geometry">
            <mxPoint y="-1" as="offset" />
          </mxGeometry>
        </mxCell>
      </root>
    </mxGraphModel>
  </diagram>
</mxfile>
